<?xml version="1.0" encoding="utf-8"?>
<!-- Generator: Adobe Illustrator 16.0.0, SVG Export Plug-In . SVG Version: 6.00 Build 0)  -->
<!DOCTYPE svg PUBLIC "-//W3C//DTD SVG 1.1//EN" "http://www.w3.org/Graphics/SVG/1.1/DTD/svg11.dtd">
<svg version="1.1" id="Layer_1" xmlns="http://www.w3.org/2000/svg" xmlns:xlink="http://www.w3.org/1999/xlink" x="0px" y="0px"
	 width="146.351px" height="144px" viewBox="0 0 146.351 144" enable-background="new 0 0 146.351 144" xml:space="preserve">
<g>
	<path fill="#FFFFFF" d="M18.579,137.462v-24.34c0.098-0.523,1.158-5.449,6.77-6.369c0.039-0.008,0.07-0.029,0.107-0.041
		c0.035,0.012,0.066,0.033,0.105,0.041c5.645,0.928,6.67,5.801,6.77,6.365v24.344c0,0.391,0.318,0.709,0.711,0.709
		c0.392,0,0.709-0.318,0.709-0.709v-24.4c0-0.035-0.002-0.07-0.008-0.105c-0.01-0.064-1.043-6.471-7.951-7.605
		c-0.118-0.018-0.23,0.002-0.336,0.037c-0.107-0.035-0.219-0.055-0.338-0.037c-6.907,1.135-7.941,7.541-7.951,7.605
		c-0.004,0.035-0.008,0.07-0.008,0.105v24.4c0,0.391,0.318,0.709,0.709,0.709C18.261,138.171,18.579,137.853,18.579,137.462z"/>
	<path fill="#FFFFFF" d="M48.177,62.635c0.295,0,0.532-0.24,0.532-0.533v-4.021c0-0.295-0.237-0.533-0.532-0.533
		s-0.533,0.238-0.533,0.533v4.021C47.644,62.395,47.882,62.635,48.177,62.635z"/>
	<path fill="#FFFFFF" d="M46.026,59.38c0-0.293-0.238-0.532-0.533-0.532s-0.532,0.239-0.532,0.532v2.722
		c0,0.293,0.237,0.533,0.532,0.533s0.533-0.24,0.533-0.533V59.38z"/>
	<path fill="#FFFFFF" d="M51.054,62.635c0.294,0,0.532-0.24,0.532-0.533V59.38c0-0.293-0.238-0.532-0.532-0.532
		s-0.532,0.239-0.532,0.532v2.722C50.521,62.395,50.76,62.635,51.054,62.635z"/>
	<path fill="#FFFFFF" d="M140.213,100.765l4.246-4.957c0.023-0.027,0.031-0.061,0.05-0.088c0.026-0.043,0.054-0.082,0.071-0.129
		c0.018-0.049,0.023-0.1,0.03-0.15c0.005-0.031,0.02-0.061,0.02-0.094c0-0.01-0.005-0.018-0.005-0.027
		c-0.002-0.053-0.018-0.104-0.031-0.154c-0.011-0.039-0.016-0.078-0.031-0.113c-0.018-0.039-0.047-0.07-0.071-0.105
		c-0.029-0.041-0.056-0.084-0.093-0.119c-0.007-0.006-0.01-0.014-0.016-0.021c-0.025-0.02-0.057-0.027-0.082-0.045
		c-0.045-0.029-0.088-0.059-0.139-0.076c-0.045-0.018-0.09-0.021-0.137-0.029c-0.035-0.004-0.068-0.02-0.105-0.02h-5.324V84.462
		h1.895c0.391,0,0.709-0.318,0.709-0.709c0-0.393-0.318-0.711-0.709-0.711h-1.895V79.61c0-0.391-0.316-0.709-0.709-0.709h-34.426
		v-9.178c0.087-0.191,0.091-0.408,0-0.594V56.306c0-0.113-0.032-0.216-0.079-0.311c-0.004-0.009-0.002-0.019-0.006-0.027
		l-4.792-8.873c-0.124-0.229-0.363-0.372-0.624-0.372s-0.5,0.143-0.625,0.372l-4.791,8.873c-0.119,0.22-0.113,0.486,0.015,0.7
		c0.063,0.106,0.151,0.189,0.255,0.25v4.652H53.537v-4.305c0.212-0.122,0.362-0.342,0.362-0.605c0-0.156-0.051-0.3-0.136-0.418
		l-4.748-8.793c-0.124-0.229-0.364-0.373-0.624-0.373c-0.261,0-0.501,0.144-0.625,0.373l-4.791,8.873
		c-0.005,0.009-0.002,0.02-0.007,0.028c-0.047,0.095-0.079,0.197-0.079,0.31v12.823c-0.09,0.188-0.086,0.402,0,0.596v8.822H8.464
		c-0.392,0-0.709,0.318-0.709,0.709v3.787H5.862c-0.393,0-0.711,0.316-0.711,0.709s0.318,0.711,0.711,0.711h1.893v10.174H2.431
		c-0.033,0-0.062,0.016-0.095,0.02c-0.051,0.006-0.101,0.012-0.149,0.029c-0.048,0.018-0.088,0.045-0.13,0.072
		C2.028,95.13,1.996,95.14,1.97,95.161c-0.008,0.006-0.011,0.016-0.018,0.021C1.915,95.218,1.89,95.259,1.86,95.3
		c-0.024,0.037-0.053,0.066-0.07,0.105c-0.018,0.037-0.022,0.078-0.033,0.119c-0.014,0.049-0.028,0.098-0.03,0.15
		C1.726,95.683,1.722,95.69,1.722,95.7c0,0.035,0.016,0.066,0.02,0.1c0.007,0.049,0.012,0.098,0.029,0.145
		c0.018,0.049,0.046,0.09,0.074,0.131c0.018,0.029,0.024,0.061,0.047,0.086l4.246,4.959c0.057,0.086,0.118,0.164,0.197,0.232v37.057
		H4.561v2.127h137.23v-2.127h-1.775v-37.412C140.096,100.931,140.156,100.851,140.213,100.765z M59.747,110.489
		c-0.018-0.352-0.292-8.66,12.867-13.541c13.16,4.881,12.885,13.189,12.865,13.57v27.891H59.748L59.747,110.489z M86.544,110.55
		c0.023-0.385,0.386-9.475-13.661-14.641c-0.09-0.033-0.181-0.031-0.269-0.016c-0.088-0.016-0.18-0.018-0.27,0.016
		c-14.046,5.166-13.684,14.256-13.662,14.609v27.891h-2.076c0.008-0.084,0.005-0.17-0.02-0.254l-2.473-8.791
		c0.016-0.178-0.033-0.346-0.137-0.484l-0.086-0.303v-4.531c0.025-0.039,0.057-0.072,0.072-0.115
		c0.083-0.215,0.042-0.439-0.072-0.623v-5.408c0.053-0.061,0.102-0.129,0.133-0.209c0.094-0.25,0.029-0.516-0.133-0.707v-4.893
		c0.004-0.008,0.011-0.012,0.014-0.02c0.068-0.18,0.057-0.367-0.014-0.529v-5.006c0.025-0.039,0.057-0.07,0.072-0.113
		c0.083-0.217,0.042-0.441-0.072-0.623V94.872c0-0.246-0.128-0.477-0.34-0.605l-0.031-0.02c0.004-0.029,0.017-0.055,0.017-0.084
		v-1.244h39.276v0.889c0,0.029,0.014,0.055,0.017,0.084l-0.032,0.02c-0.211,0.129-0.34,0.359-0.34,0.605v10.928
		c-0.113,0.182-0.154,0.406-0.072,0.623c0.018,0.043,0.049,0.076,0.072,0.115v5.006c-0.068,0.162-0.08,0.35-0.012,0.527
		c0.002,0.008,0.01,0.014,0.012,0.021v4.891c-0.162,0.191-0.226,0.457-0.131,0.707c0.03,0.082,0.078,0.148,0.131,0.211v5.408
		c-0.113,0.182-0.154,0.406-0.072,0.623c0.018,0.043,0.049,0.076,0.072,0.113v4.533l-0.084,0.301
		c-0.104,0.139-0.152,0.309-0.137,0.484l-2.473,8.791c-0.062,0.221-0.004,0.438,0.121,0.609h-3.34L86.544,110.55z M44.31,57.37
		h7.809v10.213l-1.6-0.793c-0.1-0.049-0.207-0.074-0.316-0.074h-3.803c-0.164,0-0.324,0.058-0.45,0.162l-1.64,1.35V57.37z
		 M101.71,127.042c-0.113-0.072-0.244-0.109-0.379-0.109h-4.969c-0.086,0-0.172,0.016-0.252,0.045l-2.232,0.848v-4.057l2.732-1.035
		h4.635l3.014,1.896v4.018L101.71,127.042z M84.769,91.856v-8.4h3.727v8.4H84.769z M79.978,91.856v-8.4h3.727v8.4H79.978z
		 M75.896,91.856v-8.4h3.017v8.4H75.896z M71.105,91.856v-8.4h3.726v8.4H71.105z M67.024,91.856v-8.4h3.016v8.4H67.024z
		 M62.233,91.856v-8.4h3.726v8.4H62.233z M57.796,91.856v-8.4h3.371v8.4H57.796z M53.537,91.856v-8.4h3.194v8.4H53.537z
		 M50.24,127.333c-0.079-0.031-0.165-0.045-0.251-0.045h-4.969c-0.135,0-0.266,0.037-0.379,0.107l-2.551,1.607v-4.016l3.016-1.898
		h4.633l2.734,1.035v4.055L50.24,127.333z M42.091,113.091l2.957-1.863h4.634l2.792,1.061v4.055l-2.293-0.869
		c-0.08-0.031-0.166-0.047-0.252-0.047H44.96c-0.133,0-0.264,0.039-0.377,0.109l-2.492,1.568V113.091z M52.474,110.769l-2.41-0.914
		c-0.08-0.031-0.166-0.045-0.252-0.045h-4.969c-0.135,0-0.266,0.037-0.379,0.107l-2.373,1.496v-3.936l3.016-1.898h4.633l2.734,1.037
		V110.769z M42.091,118.782l3.075-1.934H49.8l2.674,1.012v4.746l-2.352-0.893c-0.08-0.029-0.166-0.047-0.252-0.047h-4.969
		c-0.133,0-0.265,0.039-0.379,0.111l-2.432,1.529V118.782z M52.474,105.099l-2.352-0.893c-0.08-0.031-0.166-0.047-0.252-0.047
		h-4.969c-0.133,0-0.265,0.037-0.379,0.109l-2.432,1.531v-4.016l2.897-1.824h4.634l2.852,1.08V105.099z M51.423,92.964
		c-0.111-0.066-0.239-0.102-0.369-0.102h-5.68c-0.15,0-0.297,0.047-0.419,0.137l-0.646,0.473v-9.65l1.925-1.488h0.161v2.365
		c0,0.393,0.317,0.709,0.709,0.709c0.393,0,0.711-0.316,0.711-0.709v-2.365h1.227v2.365c0,0.393,0.318,0.709,0.709,0.709
		c0.394,0,0.711-0.316,0.711-0.709v-2.094l1.656,0.771V93.39L51.423,92.964z M79.766,82.392c-0.09-0.07-0.197-0.117-0.319-0.117
		c-0.123,0-0.23,0.047-0.32,0.117H57.585c-0.09-0.07-0.198-0.117-0.32-0.117c-0.123,0-0.23,0.047-0.32,0.117h-3.407v-1.893h39.276
		v1.893H79.766z M92.813,79.435H53.537V69.26h39.276V79.435z M89.561,83.456h3.253v8.4h-3.253V83.456z M94.233,83.022l1.656-0.773
		v2.094c0,0.393,0.318,0.711,0.709,0.711c0.393,0,0.71-0.318,0.71-0.711v-2.365h1.228v2.365c0,0.393,0.318,0.711,0.711,0.711
		c0.391,0,0.709-0.318,0.709-0.711v-2.365h0.16l1.924,1.488v9.65l-0.644-0.473c-0.122-0.09-0.269-0.137-0.421-0.137h-5.678
		c-0.131,0-0.258,0.035-0.37,0.104l-0.694,0.424V83.022z M93.878,111.933l2.793-1.059h4.633l2.955,1.859v4.018l-2.49-1.568
		c-0.113-0.072-0.244-0.109-0.379-0.109h-4.968c-0.087,0-0.171,0.016-0.253,0.045l-2.291,0.869V111.933z M104.259,111.056
		l-2.371-1.492c-0.114-0.072-0.244-0.109-0.379-0.109H96.54c-0.086,0-0.172,0.016-0.252,0.045l-2.41,0.916v-4.154l2.732-1.037h4.635
		l3.014,1.898V111.056z M93.878,117.507l2.674-1.016h4.635l3.072,1.936v4.527l-2.432-1.531c-0.113-0.072-0.244-0.109-0.379-0.109
		H96.48c-0.087,0-0.171,0.016-0.251,0.045l-2.352,0.893V117.507z M104.259,105.444l-2.432-1.531
		c-0.113-0.07-0.244-0.109-0.379-0.109H96.48c-0.087,0-0.171,0.016-0.251,0.047l-2.352,0.891v-4.055l2.852-1.082h4.634l2.896,1.824
		V105.444z M104.259,99.751l-2.312-1.457c-0.113-0.072-0.244-0.109-0.379-0.109h-4.969c-0.086,0-0.17,0.016-0.252,0.047
		l-2.469,0.936v-4.252l1.619-0.988h0.393v2.129c0,0.391,0.318,0.709,0.709,0.709c0.393,0,0.71-0.318,0.71-0.709v-2.129h1.228v2.129
		c0,0.391,0.318,0.709,0.711,0.709c0.391,0,0.709-0.318,0.709-0.709v-2.129h0.787l1.297,0.949v0.35c0,0.393,0.319,0.711,0.711,0.711
		h1.508V99.751z M100.794,80.706c-0.125-0.098-0.277-0.148-0.435-0.148h-4.044c-0.104,0-0.205,0.023-0.299,0.064l-1.783,0.832
		V68.812l2.082-1.031h3.381l2.344,1.929v9.9v2.061L100.794,80.706z M102.04,67.872l-1.639-1.349
		c-0.127-0.105-0.287-0.161-0.449-0.161h-3.805c-0.108,0-0.217,0.023-0.314,0.072l-1.6,0.794V57.015h7.807V67.872z M92.813,68.194
		H53.537v-1.715h39.276V68.194z M44.31,79.61v-9.543l2.346-1.931h3.381l2.082,1.031V81.81l-1.782-0.832
		c-0.095-0.043-0.196-0.064-0.3-0.064h-4.045c-0.156,0-0.31,0.051-0.434,0.148l-1.248,0.965V79.61z M43.601,95.937
		c0.39,0,0.703-0.314,0.707-0.703l1.299-0.953h0.789v2.131c0,0.391,0.317,0.709,0.709,0.709c0.393,0,0.711-0.318,0.711-0.709V94.28
		h1.227v2.131c0,0.391,0.318,0.709,0.709,0.709c0.394,0,0.711-0.318,0.711-0.709V94.28h0.392l1.62,0.99v4.252l-2.47-0.938
		c-0.081-0.031-0.166-0.045-0.253-0.045h-4.969c-0.133,0-0.264,0.037-0.377,0.107l-2.314,1.459v-4.17H43.601z M3.974,96.411h2.361
		v2.756L3.974,96.411z M8.464,96.411h2.485v3.074H8.464V96.411z M12.368,96.411h2.604v3.074h-2.604V96.411z M16.392,96.411h2.246
		v3.074h-2.246V96.411z M20.059,96.411h2.247v3.074h-2.247V96.411z M23.726,96.411h2.604v3.074h-2.604V96.411z M27.748,96.411h2.188
		v3.074h-2.188V96.411z M31.356,96.411h2.307v3.074h-2.307V96.411z M35.083,96.411h1.774v3.074h-1.774V96.411z M38.276,96.411h1.686
		v3.074h-1.686V96.411z M41.842,130.839l3.383-2.133h4.634l2.904,1.102l2.421,8.602H40.216L41.842,130.839z M91.13,138.187
		l2.457-8.734l2.906-1.1h4.633l3.383,2.129l1.703,7.928H91.021C91.068,138.343,91.107,138.269,91.13,138.187z M106.389,96.056h1.687
		v3.074h-1.687V96.056z M109.495,96.056h1.774v3.074h-1.774V96.056z M112.688,96.056h2.308v3.074h-2.308V96.056z M116.414,96.056
		h2.189v3.074h-2.189V96.056z M120.023,96.056h2.603v3.074h-2.603V96.056z M124.045,96.056h2.248v3.074h-2.248V96.056z
		 M127.713,96.056h2.247v3.074h-2.247V96.056z M131.38,96.056h2.603v3.074h-2.603V96.056z M135.402,96.056h2.484v3.074h-2.484
		V96.056z M140.016,96.056h2.361l-2.361,2.758V96.056z M137.176,94.517h-33.715V84.462h33.715V94.517z M137.176,80.321v2.721
		h-33.362l-0.353-0.273v-0.91v-1.537H137.176z M97.96,48.927l3.602,6.669h-7.203L97.96,48.927z M92.813,62.635v2.78H53.537v-2.78
		H92.813z M48.392,49.281l3.602,6.67H44.79L48.392,49.281z M9.174,80.321H42.89v1.893v0.91l-0.352,0.273H9.174V80.321z
		 M42.89,84.817v9.699H9.174v-9.699H42.89z M8.464,101.614h31.498v27.836l-1.925,8.959H37.39v-34.221
		c0-0.393-0.318-0.709-0.711-0.709h-22.27c-0.393,0-0.711,0.316-0.711,0.709v34.221H8.464V101.614z M21.241,138.171v-14.463
		c0-2.398,1.95-4.348,4.348-4.348c2.396,0,4.348,1.949,4.348,4.348v14.463H21.241z M25.589,118.651
		c-2.789,0-5.058,2.268-5.058,5.057v14.463h-2.663h-2.75v-33.273H35.97v33.273h-2.928h-2.396v-14.463
		C30.646,120.919,28.377,118.651,25.589,118.651z M125.11,137.815h-8.696v-14.463c0-2.396,1.951-4.346,4.349-4.346
		s4.348,1.949,4.348,4.346V137.815z M120.763,118.296c-2.789,0-5.058,2.27-5.058,5.057v14.463h-2.396h-2.927v-33.271h20.851v33.271
		h-2.751h-2.661v-14.463C125.82,120.565,123.551,118.296,120.763,118.296z M132.652,138.409v-34.574
		c0-0.395-0.318-0.711-0.711-0.711h-22.271c-0.391,0-0.709,0.316-0.709,0.711v34.574h-0.572l-2.001-9.312v-27.836h31.498v37.148
		H132.652z"/>
	<path fill="#FFFFFF" d="M114.02,137.106v-24.34c0.097-0.523,1.158-5.447,6.77-6.369c0.039-0.008,0.07-0.027,0.106-0.041
		c0.036,0.014,0.067,0.033,0.106,0.041c5.645,0.928,6.67,5.801,6.77,6.367v24.342c0,0.391,0.318,0.709,0.71,0.709
		c0.393,0,0.71-0.318,0.71-0.709v-24.4c0-0.035-0.002-0.07-0.008-0.105c-0.01-0.064-1.043-6.469-7.951-7.605
		c-0.118-0.018-0.23,0.002-0.337,0.037c-0.106-0.035-0.218-0.055-0.337-0.037c-6.907,1.137-7.941,7.541-7.951,7.605
		c-0.006,0.035-0.008,0.07-0.008,0.105v24.4c0,0.391,0.318,0.709,0.709,0.709C113.702,137.815,114.02,137.497,114.02,137.106z"/>
	<path fill="#FFFFFF" d="M98.175,62.28c0.293,0,0.531-0.239,0.531-0.532v-4.022c0-0.294-0.238-0.532-0.531-0.532
		c-0.295,0-0.533,0.238-0.533,0.532v4.022C97.642,62.041,97.88,62.28,98.175,62.28z"/>
	<path fill="#FFFFFF" d="M100.858,62.28c0.294,0,0.531-0.239,0.531-0.532v-2.721c0-0.296-0.237-0.534-0.531-0.534
		c-0.295,0-0.533,0.238-0.533,0.534v2.721C100.325,62.041,100.563,62.28,100.858,62.28z"/>
	<path fill="#FFFFFF" d="M95.297,62.28c0.294,0,0.532-0.239,0.532-0.532v-2.721c0-0.296-0.238-0.534-0.532-0.534
		s-0.532,0.238-0.532,0.534v2.721C94.765,62.041,95.003,62.28,95.297,62.28z"/>
	<path fill="#FFFFFF" d="M85.42,95.169c-1.435,0-2.603,1.166-2.603,2.602c0,0.041,0.01,0.08,0.012,0.123
		c-0.029,0.158-0.049,0.318-0.049,0.482c0,1.436,1.168,2.604,2.604,2.604c1.434,0,2.602-1.168,2.602-2.604
		c0-0.041-0.01-0.08-0.012-0.123c0.029-0.158,0.049-0.318,0.049-0.482C88.022,96.335,86.854,95.169,85.42,95.169z M85.42,99.308
		c-0.776,0-1.412-0.578-1.517-1.326c0.176-0.656,0.77-1.143,1.48-1.143c0.774,0,1.411,0.58,1.516,1.328
		C86.724,98.821,86.13,99.308,85.42,99.308z"/>
	<path fill="#FFFFFF" d="M60.968,95.419c-1.105,0-2.047,0.697-2.424,1.672c-0.137,0.318-0.216,0.666-0.216,1.033
		c0,1.438,1.168,2.604,2.603,2.604c1.107,0,2.049-0.697,2.424-1.674c0.138-0.318,0.215-0.666,0.215-1.031
		C63.569,96.587,62.403,95.419,60.968,95.419z M60.968,99.562c-0.848,0-1.537-0.691-1.537-1.539c0-0.182,0.037-0.354,0.095-0.516
		c0.239-0.541,0.778-0.92,1.405-0.92c0.849,0,1.539,0.691,1.539,1.537c0,0.182-0.038,0.355-0.096,0.518
		C62.135,99.181,61.595,99.562,60.968,99.562z"/>
</g>
</svg>
