<?xml version="1.0" encoding="utf-8"?>
<!-- Generator: Adobe Illustrator 16.0.0, SVG Export Plug-In . SVG Version: 6.00 Build 0)  -->
<!DOCTYPE svg PUBLIC "-//W3C//DTD SVG 1.1//EN" "http://www.w3.org/Graphics/SVG/1.1/DTD/svg11.dtd">
<svg version="1.1" id="Layer_1" xmlns="http://www.w3.org/2000/svg" xmlns:xlink="http://www.w3.org/1999/xlink" x="0px" y="0px"
	 width="146.351px" height="144px" viewBox="0 0 146.351 144" enable-background="new 0 0 146.351 144" xml:space="preserve">
<path fill="#FFFFFF" d="M137.135,141.207h-25.303v-9.098h-3.161v-21.506h-0.392v21.506h-3.178v9.098h-6.517v-8.973h-3.161v-21.541
	h-0.392v21.541h-3.178v8.973H86.12v-8.973h-3.178v-21.541H82.55v21.541h-3.161v8.973h-8.576v-8.738h-3.16v-21.775h-0.392v21.775
	h-3.178v8.738h-6.517v-8.648h-3.178V110.73h-0.392v21.828h-3.161v8.648h-5.842v-8.521h-3.161V110.73h-0.392v21.955h-3.196v8.521
	h-26.35V86.804h24.389l-8.699,9.729l10.661-0.018v8.072h6.749V96.5l5.842-0.02v8.107h6.73v-8.125l6.517-0.02v8.127h6.73v-8.143
	l8.576-0.02v8.109h6.73v-8.125l5.735-0.021v8.146h6.73v-8.162l6.517-0.02v8.182h6.73v-8.199l8.832-0.018l-7.708-9.639h24.179
	V141.207z M112.595,140.445h23.777V87.423h-21.829l7.705,9.639l-9.653,0.018v8.199h-8.256v-8.18l-4.991,0.016v8.164h-8.256v-8.143
	l-4.209,0.016v8.127h-8.256v-8.107l-7.05,0.018v8.145h-8.257v-8.125l-4.99,0.016v8.127h-8.257v-8.105l-4.315,0.014v8.092h-8.274
	v-8.07l-11.606,0.018l8.703-9.73H12.658v52.877h24.825v-8.523h3.196v-21.955h1.917v21.955h3.161v8.523h4.315v-8.65h3.161v-21.828
	h1.917v21.828h3.179v8.65h4.99v-8.74h3.179v-21.775h1.917v21.775h3.161v8.74h7.05v-8.975h3.161v-21.541h1.917v21.541h3.179v8.975
	h4.209v-8.975h3.179v-21.541h1.917v21.541h3.161v8.975h4.991v-9.1h3.178v-21.504h1.917v21.504h3.161V140.445z M57.175,141.207
	h-5.948v-8.24h5.948V141.207z M51.99,140.445h4.422v-6.715H51.99V140.445z M44.603,141.207h-5.966v-8.113h5.966V141.207z
	 M39.4,140.445h4.44v-6.588H39.4V140.445z M70.421,141.064h-5.948v-8.188h5.948V141.064z M65.237,140.3h4.422v-6.66h-4.422V140.3z
	 M98.194,140.757h-5.948v-8.113h5.948V140.757z M93.009,139.994h4.422v-6.588h-4.422V139.994z M85.728,140.757h-5.947v-8.113h5.947
	V140.757z M80.543,139.994h4.422v-6.588h-4.422V139.994z M111.441,140.63h-5.948v-8.115h5.948V140.63z M106.255,139.869h4.423v-6.59
	h-4.423V139.869z M26.228,137.712c-1.258-0.002-2.341-0.455-3.222-1.35c-0.867-0.881-1.308-1.971-1.309-3.24
	c0-1.258,0.441-2.342,1.309-3.221c0.88-0.895,1.963-1.35,3.218-1.352h0.003c1.24,0,2.307,0.453,3.174,1.342
	c0.897,0.887,1.35,1.971,1.351,3.23c-0.001,1.271-0.455,2.363-1.348,3.244C28.534,137.261,27.467,137.712,26.228,137.712z
	 M26.228,128.933l-0.003,0.381c-1.058,0.002-1.933,0.367-2.675,1.123c-0.733,0.742-1.089,1.621-1.089,2.686
	c0.001,1.078,0.357,1.963,1.089,2.705c0.742,0.754,1.617,1.121,2.675,1.121c1.043,0,1.902-0.363,2.63-1.109
	c0.768-0.758,1.134-1.641,1.135-2.717c0-1.062-0.367-1.939-1.12-2.684c-0.742-0.762-1.601-1.125-2.642-1.125V128.933z
	 M124.28,137.55c-1.24-0.002-2.322-0.455-3.218-1.348c-0.869-0.896-1.309-1.986-1.31-3.24c-0.001-1.252,0.435-2.344,1.294-3.246
	l0.029-0.029c0.89-0.871,1.967-1.314,3.2-1.314h0.004c1.236,0,2.314,0.443,3.206,1.316c0.887,0.93,1.323,2.023,1.322,3.273
	c-0.001,1.254-0.441,2.344-1.306,3.236C126.602,137.095,125.52,137.548,124.28,137.55z M124.276,129.134
	c-1.041,0-1.914,0.359-2.668,1.1c-0.739,0.775-1.094,1.664-1.093,2.727c0.001,1.064,0.358,1.951,1.091,2.709
	c0.752,0.75,1.628,1.117,2.674,1.117c1.045,0,1.921-0.367,2.678-1.123c0.728-0.752,1.085-1.639,1.087-2.703
	c0-1.062-0.354-1.951-1.085-2.719c-0.763-0.748-1.636-1.107-2.677-1.107H124.276z M26.225,136.541L26.225,136.541
	c-0.937,0-1.746-0.338-2.402-1.006c-0.646-0.654-0.974-1.467-0.972-2.412c0-0.934,0.326-1.738,0.972-2.393
	c0.657-0.668,1.465-1.006,2.402-1.006c0.926,0,1.724,0.34,2.37,1.008c0.667,0.654,1.003,1.459,1.003,2.391
	c0.001,0.945-0.336,1.756-1.002,2.408C27.948,136.201,27.15,136.539,26.225,136.541z M26.224,130.486
	c-0.734,0-1.343,0.256-1.859,0.779c-0.505,0.514-0.752,1.121-0.751,1.857c-0.001,0.75,0.245,1.363,0.751,1.877
	c0.516,0.523,1.125,0.777,1.859,0.777c0.722,0,1.317-0.254,1.822-0.775c0.537-0.527,0.79-1.137,0.79-1.879
	c0-0.73-0.253-1.334-0.774-1.846C27.542,130.742,26.946,130.488,26.224,130.486z M124.283,136.378h-0.004
	c-0.927,0-1.733-0.338-2.4-1.004c-0.648-0.67-0.974-1.48-0.973-2.414c0.002-0.928,0.323-1.74,0.957-2.414l0.03-0.031
	c0.667-0.645,1.471-0.971,2.387-0.973c0.918,0.002,1.721,0.328,2.388,0.973l0.031,0.031c0.633,0.674,0.955,1.486,0.956,2.414
	c0.001,0.936-0.325,1.744-0.969,2.41C126.013,136.041,125.207,136.378,124.283,136.378z M124.279,130.306
	c-0.722,0-1.329,0.248-1.856,0.758c-0.508,0.539-0.753,1.158-0.754,1.898c-0.001,0.738,0.246,1.354,0.754,1.877
	c0.521,0.521,1.128,0.775,1.854,0.775l0.006,0.381v-0.381c0.725,0,1.333-0.254,1.858-0.779c0.504-0.52,0.751-1.135,0.75-1.873
	c0-0.738-0.246-1.357-0.75-1.895C125.609,130.554,125.002,130.306,124.279,130.306z M32.892,126.771H19.113v-1.934h1.288v-10.012
	H15.39l4.138-6.33H32.22l4.482,6.33h-5.205v10.012h1.395V126.771z M19.876,126.009h12.253v-0.408h-1.394v-11.537h4.492l-3.402-4.807
	H19.941l-3.142,4.807h4.364v11.537h-1.288V126.009z M130.947,126.609h-13.761v-1.934h1.288v-10.01h-5.012l4.139-6.332h12.72
	l4.421,6.332h-5.171v10.01h1.376V126.609z M117.949,125.847h12.235v-0.408h-1.376v-11.537h4.471l-3.356-4.807h-11.909l-3.142,4.807
	h4.365v11.537h-1.288V125.847z M30.344,125.005h-8.79v-10.635h8.79V125.005z M22.318,124.244h7.264v-9.111h-7.264V124.244z
	 M128.416,124.826h-8.789v-10.619h8.789V124.826z M120.39,124.064h7.264v-9.094h-7.264V124.064z M34.446,113.656H17.537l2.613-3.988
	h11.475L34.446,113.656z M18.949,112.892h14.024l-1.743-2.463H20.562L18.949,112.892z M132.514,113.492H115.61l2.612-3.986h11.504
	L132.514,113.492z M117.022,112.73h14.028l-1.722-2.461h-10.694L117.022,112.73z M57.752,109.027H50.65v-1.934h7.103V109.027z
	 M51.413,108.263h5.576v-0.406h-5.576V108.263z M45.18,109.027h-7.12v-1.934h7.12V109.027z M38.823,108.263h5.594v-0.406h-5.594
	V108.263z M98.771,109.007h-7.102v-1.934h7.102V109.007z M92.432,108.246h5.576v-0.408h-5.576V108.246z M86.305,109.007h-7.102
	v-1.934h7.102V109.007z M79.966,108.246h5.576v-0.408h-5.576V108.246z M70.999,109.007h-7.102v-1.934h7.102V109.007z M64.66,108.246
	h5.577v-0.408H64.66V108.246z M112.018,108.919h-7.102v-1.934h7.102V108.919z M105.679,108.156h5.577v-0.408h-5.577V108.156z
	 M26.225,107.945c-1.114,0-2.072-0.398-2.847-1.184c-0.787-0.801-1.186-1.77-1.184-2.883c-0.001-1.111,0.397-2.082,1.184-2.879
	c0.771-0.799,1.729-1.205,2.842-1.205h0.005c1.103,0,2.059,0.404,2.846,1.205c0.774,0.801,1.166,1.77,1.167,2.879
	c-0.001,1.113-0.393,2.08-1.164,2.879C28.28,107.546,27.324,107.945,26.225,107.945z M26.22,100.558
	c-0.911,0-1.663,0.318-2.296,0.975c-0.652,0.66-0.968,1.428-0.967,2.346c-0.001,0.92,0.315,1.686,0.964,2.348
	c0.635,0.643,1.389,0.955,2.304,0.957c0.901-0.002,1.656-0.314,2.305-0.961c0.632-0.656,0.944-1.424,0.945-2.344
	c-0.001-0.918-0.312-1.686-0.95-2.346c-0.645-0.656-1.396-0.975-2.295-0.975H26.22z M124.283,107.783l-0.003-0.381l0,0.381h-0.003
	c-1.1,0-2.057-0.404-2.843-1.203c-0.774-0.785-1.167-1.75-1.167-2.863c0.001-1.125,0.393-2.096,1.166-2.879
	c0.788-0.801,1.744-1.205,2.842-1.205c1.107,0,2.064,0.404,2.851,1.205c0.773,0.783,1.166,1.754,1.167,2.879
	c0,1.115-0.393,2.078-1.167,2.863C126.339,107.378,125.382,107.783,124.283,107.783z M124.284,100.396
	c-0.907,0-1.659,0.318-2.307,0.977c-0.636,0.645-0.946,1.412-0.947,2.346c0,0.918,0.31,1.678,0.947,2.326
	c0.647,0.656,1.4,0.975,2.3,0.975h0.003l0,0.383l0.003-0.383c0.9,0,1.653-0.318,2.299-0.975c0.637-0.646,0.947-1.408,0.948-2.328
	c-0.001-0.932-0.311-1.699-0.948-2.344C125.935,100.714,125.183,100.396,124.284,100.396z M26.228,106.775
	C26.228,106.775,26.228,106.775,26.228,106.775h-0.004c-0.796,0-1.478-0.285-2.03-0.844c-0.56-0.568-0.845-1.26-0.846-2.053
	c0.001-0.791,0.286-1.48,0.846-2.051c0.551-0.568,1.235-0.861,2.03-0.861c0.785,0,1.468,0.291,2.03,0.861
	c0.552,0.572,0.83,1.262,0.829,2.051c0,0.791-0.277,1.48-0.827,2.051C27.691,106.492,27.01,106.775,26.228,106.775z M26.224,101.728
	c-0.588,0.002-1.073,0.209-1.483,0.633c-0.423,0.43-0.629,0.926-0.63,1.518c0.001,0.594,0.207,1.09,0.627,1.518
	c0.409,0.414,0.894,0.615,1.484,0.615h0.005c0.582,0,1.068-0.201,1.486-0.619c0.407-0.422,0.608-0.918,0.606-1.514
	c0.001-0.596-0.199-1.09-0.611-1.518C27.292,101.937,26.805,101.73,26.224,101.728z M124.28,106.613h-0.001
	c-0.784-0.002-1.467-0.291-2.028-0.861c-0.55-0.561-0.83-1.244-0.83-2.035c-0.001-0.801,0.278-1.492,0.83-2.051
	c0.562-0.57,1.244-0.861,2.028-0.861c0.786,0,1.468,0.291,2.03,0.861c0.551,0.559,0.83,1.25,0.829,2.053
	c0,0.789-0.279,1.475-0.829,2.033C125.747,106.322,125.064,106.611,124.28,106.613z M124.279,101.566
	c-0.58,0.002-1.065,0.209-1.485,0.635c-0.411,0.416-0.61,0.912-0.61,1.516c0,0.592,0.2,1.082,0.61,1.5
	c0.42,0.426,0.905,0.633,1.486,0.633s1.067-0.207,1.486-0.633c0.41-0.418,0.609-0.908,0.609-1.5c0-0.604-0.199-1.1-0.609-1.516
	C125.346,101.775,124.86,101.568,124.279,101.566z M57.175,104.181h-5.948v-7.664l5.948-0.02V104.181z M51.99,103.417h4.422v-6.154
	l-4.422,0.014V103.417z M44.603,104.181h-5.966v-7.664l5.966-0.02V104.181z M39.4,103.417h4.44v-6.154l-4.44,0.014V103.417z
	 M70.421,104.162h-5.948v-7.645l5.948-0.02V104.162z M65.237,103.4h4.422v-6.137l-4.422,0.014V103.4z M111.441,104.109h-5.948
	v-7.592l5.948-0.02V104.109z M106.255,103.345h4.423v-6.082l-4.423,0.014V103.345z M98.194,104.109h-5.948v-7.592l5.948-0.02
	V104.109z M93.009,103.345h4.422v-6.082l-4.422,0.014V103.345z M85.728,104.109h-5.947v-7.592l5.947-0.02V104.109z M80.543,103.345
	h4.422v-6.082l-4.422,0.014V103.345z M28.486,96.128l8.479-9.467h75.485l7.383,9.227L28.486,96.128z M37.307,87.423l-7.11,7.938
	l88.053-0.23l-6.166-7.707H37.307z M135.892,86.251h-22.497v-1.807h22.497V86.251z M114.158,85.488h20.971v-0.281h-20.971V85.488z
	 M102.829,86.251H47.48v-8.799h22.903l-0.013-0.236c-0.066-0.801,0.06-1.656,0.377-2.529c0.614-1.699,1.864-2.734,3.717-3.074
	l0.085-0.016l0.708,0.191l0.002-0.006c0.42,0.154,0.816,0.354,1.182,0.596l1.429,0.723c-0.257-0.305-0.558-0.588-0.902-0.844
	c-0.474-0.357-1.002-0.645-1.571-0.854L75.382,71.4l-0.791-0.216l-0.009,0.002c-2.16,0.348-3.523,1.444-4.2,3.362
	c-0.266,0.73-0.408,1.443-0.422,2.123l-0.008,0.373H49.309v-5.105h1.812v-5.453h-3.64v-3.971h53.999v3.127l-2.255,1.621v4.458h2.255
	v5.322H79.01l0.007-0.387c0.021-1.322-0.294-2.418-0.957-3.318l-0.7-0.189c0.967,1.035,1.378,2.404,1.228,4.08l-0.013,0.223h24.252
	V86.251z M98.621,85.488h3.445v-7.273H77.77l0.058-1.041c0.159-1.76-0.351-3.059-1.556-3.98c-0.356-0.271-0.755-0.492-1.185-0.658
	l-0.57-0.156c-1.541,0.307-2.541,1.146-3.053,2.568c-0.279,0.77-0.391,1.516-0.333,2.217l0.058,1.051H48.243v7.273h2.522v-4.709
	h1.917v4.709h2.097v-4.709h1.917v4.709h1.635v-4.709h1.917v4.709h1.724v-4.709h1.917v4.709h21.576v-4.709h1.917v4.709h2.114v-4.709
	h1.917v4.709h1.653v-4.709h1.917v4.709h1.724v-4.709h1.917V85.488z M97.466,85.39h0.392v-3.85h-0.392V85.39z M93.826,85.39h0.392
	v-3.85h-0.392V85.39z M90.256,85.39h0.392v-3.85h-0.392V85.39z M86.226,85.39h0.392v-3.85h-0.392V85.39z M62.733,85.39h0.392v-3.85
	h-0.392V85.39z M59.093,85.39h0.391v-3.85h-0.391V85.39z M55.542,85.39h0.391v-3.85h-0.391V85.39z M51.528,85.39h0.391v-3.85h-0.391
	V85.39z M79.776,76.281h20.94v-3.795h-2.255v-5.613l2.255-1.622v-1.972H48.243v2.443h3.64v6.98h-1.812v3.578h19.145
	c0.052-0.646,0.202-1.314,0.448-1.99c0.766-2.172,2.369-3.466,4.764-3.85l0.17-0.045l1.078,0.299
	c0.617,0.226,1.215,0.549,1.75,0.954C78.923,72.765,79.713,74.322,79.776,76.281z M36.703,86.232H14.206v-1.807h22.497V86.232z
	 M14.969,85.47h20.972v-0.283H14.969V85.47z M44.213,85.748h-6.41v-7.176h6.41V85.748z M38.565,84.984h4.884v-5.65h-4.884V84.984z
	 M112.257,85.568h-6.409V78.39h6.409V85.568z M106.611,84.804h4.883v-5.652h-4.883V84.804z M135.892,84.037h-22.497v-6.273
	l2.158-3.193h18.171l2.167,3.201V84.037z M114.158,83.273h20.971v-5.268l-1.81-2.672h-17.361l-1.8,2.662V83.273z M36.684,84.015
	H14.186v-6.633l2.14-3.193h18.17l2.188,3.191V84.015z M14.948,83.251H35.92v-5.635l-1.826-2.664H16.733l-1.785,2.662V83.251z
	 M42.65,77.316h-4.847v-3.443l4.847,0.062V77.316z M38.565,76.552h3.321v-1.863l-3.321-0.045V76.552z M112.257,77.207h-4.829v-3.379
	l4.829-0.064V77.207z M108.191,76.445h3.304v-1.908l-3.304,0.043V76.445z M131.915,73.476h-14.312v-1.879h14.312V73.476z
	 M118.366,72.714h12.786v-0.354h-12.786V72.714z M42.747,73.388h-3.941v-1.935h3.941V73.388z M39.569,72.625h2.416v-0.408h-2.416
	V72.625z M112.18,73.386h-3.942v-1.933h3.942V73.386z M109.001,72.625h2.416v-0.41h-2.416V72.625z M32.475,73.382H18.146v-1.88
	h14.329V73.382z M18.908,72.619h12.804v-0.354H18.908V72.619z M131.915,71.188h-5.149v-7.712c-0.041-0.361-0.182-0.706-0.433-1.049
	l-0.073-0.106c-0.474-0.604-1.191-0.915-2.19-0.952h-0.252c-0.991,0.053-1.663,0.399-2.062,1.059l-0.008-0.005l0.012,0.01
	c-0.146,0.206-0.248,0.439-0.304,0.691c-0.047,0.155-0.072,0.265-0.082,0.357l-0.006,0.037v7.67h-3.764v-2.414h-1.953V64.23
	l7.156-7.478V51.02h3.696l0.083,5.845l6.928,7.03v4.754h-1.598V71.188z M127.529,70.425h3.623v-2.539h1.598v-3.679l-6.923-7.024
	l-0.076-5.399h-2.182v5.276l-7.156,7.479v3.474h1.953v2.413h2.239v-6.83l-1.111,1.111l1.609-2.673
	c0.532-0.88,1.429-1.359,2.667-1.427l0.296-0.001c1.317,0.049,2.277,0.509,2.886,1.368l0.07,0.11
	c0.287,0.423,0.457,0.871,0.504,1.332l0.002,0.04V70.425z M126.374,71.188h-4.616l0.01-7.712c0.012-0.051,0.028-0.104,0.048-0.162
	l0.012-0.057c0.039-0.21,0.121-0.414,0.245-0.594l0.038-0.048c0.359-0.508,0.924-0.789,1.682-0.838l0.255-0.002
	c0.502,0.021,0.932,0.124,1.288,0.314v-0.396l0.694,0.975c0.194,0.274,0.309,0.568,0.341,0.872l0.002,0.041V71.188z M122.521,70.425
	h3.09v-6.82c-0.019-0.146-0.072-0.289-0.162-0.432l-0.032-0.042c-0.291-0.373-0.743-0.566-1.383-0.591h-0.217
	c-0.509,0.033-0.875,0.209-1.095,0.535l-0.036,0.046c-0.054,0.085-0.09,0.179-0.109,0.287l-0.036,0.145
	c-0.007,0.021-0.014,0.042-0.02,0.061V70.425z M32.475,71.094h-3.941v-7.715c-0.021-0.35-0.161-0.703-0.427-1.057l-0.003,0.003
	c-0.459-0.668-1.195-1.012-2.249-1.053l-0.251,0.002c-0.987,0.052-1.663,0.396-2.074,1.054l-0.028,0.042
	c-0.211,0.351-0.322,0.703-0.331,1.046v7.678h-5.024v-2.541h-1.599V63.8l6.902-7.031l0.129-5.844h3.693v5.733l7.121,7.478v4.544
	h-1.918V71.094z M29.296,70.33h2.416v-2.414h1.917v-3.475l-7.12-7.479v-5.274h-2.185l-0.119,5.398l-6.895,7.024v3.68h1.598v2.539
	h3.5v-6.925c0.013-0.5,0.169-0.991,0.465-1.47l0.032-0.045c0.546-0.851,1.438-1.314,2.651-1.379l0.296-0.001
	c1.309,0.049,2.261,0.503,2.859,1.351l0.002-0.001c0.357,0.472,0.553,0.976,0.583,1.497L29.296,70.33z M28.142,70.808h-4.581v-7.652
	c0.017-0.309,0.114-0.598,0.289-0.878c0.379-0.54,0.957-0.831,1.729-0.881l0.255-0.001c0.878,0.032,1.528,0.329,1.947,0.881
	l0.032,0.05c0.19,0.259,0.301,0.535,0.328,0.82L28.142,70.808z M24.324,70.044h3.055v-6.861c-0.013-0.119-0.078-0.271-0.197-0.426
	l-0.031-0.047c-0.279-0.348-0.715-0.529-1.331-0.552h-0.217c-0.512,0.034-0.886,0.212-1.117,0.541
	c-0.097,0.155-0.153,0.317-0.162,0.478L24.324,70.044z M95.958,69.945h-5.859v-1.934h5.859V69.945z M90.862,69.184h4.333v-0.409
	h-4.333V69.184z M87.114,69.945h-5.858v-1.934h5.858V69.945z M82.018,69.184h4.333v-0.409h-4.333V69.184z M77.734,69.945h-5.876
	v-1.934h5.876V69.945z M72.62,69.184h4.351v-0.409H72.62V69.184z M68.647,69.945h-5.859v-1.934h5.859V69.945z M63.551,69.184h4.333
	v-0.409h-4.333V69.184z M60.088,69.945h-5.842v-1.934h5.842V69.945z M55.01,69.184h4.316v-0.409H55.01V69.184z M102.829,60.089
	H46.344v-3.052h56.485V60.089z M47.107,59.325h54.959v-1.524H47.107V59.325z M95.477,56.058H53.394v-3.736h42.083V56.058z
	 M54.157,55.294h40.558v-2.211H54.157V55.294z M95.831,51.53H83.013l-0.009-0.371c-0.095-4.071-1.403-7.085-3.888-8.957
	c-0.81-0.627-1.699-1.097-2.648-1.4c-0.291-0.097-0.569-0.174-0.832-0.234l-0.088-0.013l-0.344-0.037l-0.018,0.004
	c-3.581,0.747-5.904,2.771-7.112,6.188l-0.145,0.41c-0.302,0.931-0.497,1.924-0.581,2.962c-0.033,0.398-0.047,0.756-0.043,1.062
	l0.005,0.387H53.277l-0.112-0.114c-0.441-0.452-0.875-1.04-1.291-1.749c-0.944-1.627-1.377-3.365-1.286-5.167
	c0.117-2.534,1.278-5.075,3.45-7.548c2.711-3.145,7.004-6.213,12.758-9.115l0.081-0.041H82.7l1,0.541
	c0.907,0.537,1.809,1.092,2.713,1.661l1.115,0.703h-0.072c2.427,1.659,4.534,3.357,6.273,5.059c2.735,2.668,4.425,5.25,5.021,7.678
	c0.684,2.946-0.262,5.633-2.809,7.992L95.831,51.53z M83.754,50.769h11.777c2.282-2.162,3.092-4.503,2.478-7.154
	c-0.562-2.281-2.182-4.742-4.813-7.309c-1.951-1.907-4.375-3.813-7.206-5.666l-0.229-0.149c-0.81-0.508-1.617-1.003-2.403-1.471
	l-0.852-0.461H67.059c-5.624,2.845-9.811,5.837-12.445,8.894c-2.057,2.344-3.154,4.726-3.263,7.084
	c-0.084,1.655,0.314,3.251,1.183,4.746c0.348,0.596,0.707,1.095,1.068,1.486h12.944c0.006-0.231,0.021-0.483,0.042-0.75
	c0.102-1.262,0.36-2.465,0.768-3.577l0.74-2.016v0.344c1.428-2.654,3.751-4.331,6.927-4.993l0.135-0.031l0.603,0.068
	c0.298,0.067,0.615,0.155,0.942,0.262c1.031,0.331,1.999,0.844,2.875,1.521C82.178,43.554,83.583,46.64,83.754,50.769z
	 M82.622,51.53H67.715l-0.01-0.371c-0.008-0.303,0.004-0.656,0.037-1.05c0.09-1.126,0.318-2.202,0.677-3.199l0.018-0.059
	c1.133-3.202,3.399-5.188,6.735-5.904l0.059-0.013l0.279,0.031c0.263,0.057,0.544,0.134,0.834,0.227
	c0.912,0.293,1.767,0.743,2.541,1.34c2.376,1.834,3.63,4.73,3.727,8.608L82.622,51.53z M68.469,50.769h13.366
	c-0.162-3.439-1.31-6.006-3.416-7.633c-0.704-0.542-1.48-0.952-2.308-1.218c-0.258-0.083-0.509-0.15-0.743-0.202l-0.096-0.01
	c-3.047,0.67-5.042,2.417-6.095,5.339v0.001l-0.023,0.073c-0.346,0.945-0.566,1.973-0.653,3.053
	C68.485,50.385,68.474,50.584,68.469,50.769z M81.093,27.387H68.398v-4.763h12.695V27.387z M69.161,26.623h11.169v-3.236H69.161
	V26.623z M78.537,21.332h-7.724v-2.51h7.724V21.332z M71.576,20.57h6.198v-0.985h-6.198V20.57z M74.504,18.414h-0.086
	c-0.298-0.023-0.535-0.137-0.734-0.34c-0.208-0.2-0.315-0.462-0.313-0.756V4.744c0-0.296,0.108-0.563,0.314-0.772
	c0.215-0.218,0.485-0.336,0.782-0.338c0.292,0.009,0.547,0.126,0.755,0.338c0.206,0.209,0.314,0.477,0.314,0.774l0,12.591
	c-0.007,0.299-0.115,0.547-0.312,0.735c-0.199,0.205-0.436,0.318-0.705,0.341L74.504,18.414z M74.458,4.396
	c-0.079,0.002-0.155,0.036-0.23,0.111c-0.066,0.067-0.094,0.138-0.094,0.236V17.32c-0.001,0.091,0.021,0.148,0.079,0.203
	c0.085,0.088,0.153,0.121,0.236,0.128h0.016c0.081-0.008,0.146-0.041,0.213-0.111c0.07-0.068,0.094-0.123,0.096-0.202v-0.052V4.744
	c0-0.1-0.028-0.169-0.094-0.237C74.583,4.411,74.507,4.397,74.458,4.396z M72.961,16.82l-5.979-7.457l-0.011-0.112
	c-0.02-0.188-0.029-0.4-0.029-0.634c0.023-0.617,0.161-1.132,0.411-1.54c0.449-0.611,1.114-0.906,1.996-0.906
	c0.896,0,2.003,0.297,3.385,0.909l0.228,0.101V16.82z M67.72,9.063l4.478,5.587V7.679c-2.174-0.927-3.606-0.998-4.212-0.177
	c-0.163,0.269-0.264,0.659-0.281,1.13C67.705,8.783,67.71,8.929,67.72,9.063z M75.928,16.803V7.545l0.221-0.103
	c1.757-0.811,3.112-1.204,4.142-1.204c0.849,0,1.477,0.274,1.868,0.814c0.267,0.438,0.411,0.954,0.444,1.562
	c0.008,0.229-0.002,0.431-0.031,0.611l-0.018,0.11L75.928,16.803z M76.69,8.035v6.759l5.142-5.792
	c0.01-0.106,0.013-0.225,0.009-0.354c-0.026-0.474-0.133-0.871-0.317-1.175C80.972,6.716,79.274,6.873,76.69,8.035z"/>
</svg>
