<?xml version="1.0" encoding="utf-8"?>
<!-- Generator: Adobe Illustrator 16.0.0, SVG Export Plug-In . SVG Version: 6.00 Build 0)  -->
<!DOCTYPE svg PUBLIC "-//W3C//DTD SVG 1.1//EN" "http://www.w3.org/Graphics/SVG/1.1/DTD/svg11.dtd">
<svg version="1.1" id="Layer_1" xmlns="http://www.w3.org/2000/svg" xmlns:xlink="http://www.w3.org/1999/xlink" x="0px" y="0px"
	 width="146.351px" height="144px" viewBox="0 0 146.351 144" enable-background="new 0 0 146.351 144" xml:space="preserve">
<g>
	<path fill="#FFFFFF" d="M20.876,106.28c0-3.76-3.011-6.82-6.711-6.82c-3.466,0-6.327,2.684-6.675,6.113
		c-0.001,0.004-0.003,0.008-0.003,0.012v0.01c-0.022,0.227-0.034,0.455-0.034,0.686c0,0.061,0.02,0.113,0.034,0.17v13.809
		c0,0.389,0.313,0.701,0.7,0.701h11.941c0.387,0,0.701-0.312,0.701-0.701v-13.752C20.855,106.434,20.876,106.36,20.876,106.28z
		 M12.354,112.221v-5.936h2.789v5.936H12.354z M15.143,113.624v5.934h-2.789v-5.934H15.143z M8.89,106.286h2.062v5.936H8.89V106.286
		z M16.546,106.286h2.882v5.936h-2.882V106.286z M14.165,100.864c2.454,0,4.519,1.709,5.124,4.02H9.041
		C9.646,102.573,11.711,100.864,14.165,100.864z M8.89,113.624h2.062v5.934H8.89V113.624z M16.546,119.557v-5.934h2.882v5.934
		H16.546z"/>
	<path fill="#FFFFFF" d="M16.575,91.721v-0.084c0-0.029-0.013-0.053-0.017-0.082c-0.162-1.42-1.342-2.531-2.787-2.531
		c-1.434,0-2.607,1.094-2.785,2.498c-0.006,0.039-0.022,0.074-0.022,0.115v0.119c-0.002,0.043-0.013,0.082-0.013,0.127
		c0,0.021,0.011,0.041,0.013,0.062v1.588c0,0.387,0.313,0.701,0.7,0.701h4.211c0.387,0,0.7-0.314,0.7-0.701v-1.57
		c0.003-0.027,0.017-0.053,0.017-0.08C16.592,91.827,16.578,91.776,16.575,91.721z M12.365,92.834v-1.08
		c0.064-0.742,0.667-1.328,1.406-1.328c0.727,0,1.322,0.568,1.402,1.293v1.115H12.365z"/>
	<path fill="#FFFFFF" d="M80.011,84.696h-0.666V74.231c0-0.057-0.02-0.107-0.032-0.16c0.013-0.053,0.032-0.102,0.032-0.158
		c0-2.02-1.479-3.664-3.299-3.664s-3.298,1.644-3.298,3.664c0,0.057,0.02,0.105,0.032,0.158c-0.013,0.053-0.032,0.104-0.032,0.16
		v10.465h-0.604V74.231c0-0.057-0.02-0.107-0.031-0.16c0.012-0.053,0.031-0.102,0.031-0.158c0-2.02-1.479-3.664-3.299-3.664
		c-1.818,0-3.299,1.644-3.299,3.664c0,0.057,0.02,0.105,0.033,0.158c-0.014,0.053-0.033,0.104-0.033,0.16v10.465h-1.03
		c-0.388,0-0.701,0.312-0.701,0.701v3.873c0,0.387,0.313,0.701,0.701,0.701h15.494c0.388,0,0.701-0.314,0.701-0.701v-3.873
		C80.712,85.008,80.398,84.696,80.011,84.696z M74.117,74.071c0.014-0.053,0.033-0.102,0.033-0.158c0-1.248,0.85-2.262,1.896-2.262
		s1.896,1.014,1.896,2.262c0,0.057,0.02,0.105,0.032,0.158c-0.013,0.053-0.032,0.104-0.032,0.16v10.465H74.15V74.231
		C74.15,74.174,74.131,74.124,74.117,74.071z M70.013,86.098v2.471h-1.97v-2.471H70.013z M71.415,86.098h0.029h1.759v2.471h-1.788
		V86.098z M74.605,86.098h1.697v2.471h-1.697V86.098z M66.918,74.071c0.012-0.053,0.031-0.102,0.031-0.158
		c0-1.248,0.852-2.262,1.896-2.262c1.047,0,1.896,1.014,1.896,2.262c0,0.057,0.02,0.105,0.033,0.158
		c-0.014,0.053-0.033,0.104-0.033,0.16v10.465h-3.793V74.231C66.949,74.174,66.93,74.124,66.918,74.071z M65.217,86.098h1.031h0.393
		v2.471h-1.424V86.098z M79.31,88.569h-1.604v-2.471h0.938h0.666V88.569z"/>
	<path fill="#FFFFFF" d="M144.305,87.59c-0.008-0.043-0.006-0.086-0.022-0.129l-5.511-13.912v-7.066
		c0-0.386-0.313-0.701-0.701-0.701c-0.387,0-0.7,0.315-0.7,0.701v0.667h-9.901v-0.758c0-0.387-0.313-0.701-0.701-0.701
		c-0.387,0-0.7,0.314-0.7,0.701v7.067l-5.511,13.912c-0.04,0.102-0.049,0.207-0.041,0.309c0,0.014-0.008,0.025-0.008,0.039v6.227
		H84.813V58.919c0-0.103-0.024-0.198-0.063-0.285c-0.002-0.004,0-0.008-0.002-0.011l-7.135-15.354v-6.407
		c0-0.388-0.313-0.701-0.701-0.701c-0.387,0-0.701,0.313-0.701,0.701v0.393h-7.348v-0.393c0-0.388-0.313-0.701-0.701-0.701
		c-0.387,0-0.701,0.313-0.701,0.701v7.144l-6.502,14.629c0,0.002,0,0.004-0.001,0.006c-0.019,0.043-0.021,0.094-0.031,0.141
		c-0.009,0.045-0.026,0.088-0.026,0.133c0,0.002-0.002,0.004-0.002,0.006v35.027H25.842v-6.227c0-0.014-0.006-0.025-0.008-0.039
		c0.008-0.102,0-0.207-0.041-0.309l-5.51-13.912v-7.067c0-0.387-0.314-0.701-0.701-0.701c-0.388,0-0.701,0.314-0.701,0.701v0.758
		h-9.9v-0.667c0-0.386-0.314-0.701-0.701-0.701s-0.701,0.315-0.701,0.701v7.066l-5.51,13.912c-0.018,0.043-0.016,0.086-0.023,0.129
		c-0.009,0.043-0.026,0.084-0.026,0.129v52.5c0,0.389,0.314,0.701,0.701,0.701h4.91c0.099,0.053,0.205,0.09,0.324,0.09h11.94
		c0.119,0,0.227-0.037,0.324-0.09h4.626h0.296h2.554h8.933h2.179h8.932h2.327h8.934h2.277c0.099,0.053,0.205,0.09,0.324,0.09
		s0.227-0.037,0.324-0.09h23.123h1.344h0.314h8.933h2.429h8.932h2.18h8.932h3.1h0.296h4.626c0.098,0.053,0.205,0.09,0.324,0.09
		h11.94c0.119,0,0.226-0.037,0.325-0.09h4.91c0.387,0,0.701-0.312,0.701-0.701v-52.5C144.332,87.674,144.314,87.633,144.305,87.59z
		 M127.156,139.518v-4.57c0.329-2.666,2.561-4.738,5.263-4.738c2.729,0,4.981,2.111,5.275,4.816v4.492H127.156z M139.097,135.797
		c0.015-0.057,0.034-0.109,0.034-0.17c0-0.23-0.012-0.459-0.034-0.686v-0.01c0-0.004-0.003-0.008-0.003-0.012
		c-0.35-3.428-3.209-6.113-6.675-6.113c-3.7,0-6.712,3.061-6.712,6.82c0,0.082,0.021,0.156,0.047,0.23v3.66h-3.844v-14.045h21.02
		v14.045h-3.833V135.797z M127.244,74.293h10.314l5.371,13.559v0.08h-5.933l-3.906-6.146c-0.128-0.203-0.352-0.326-0.592-0.326
		c0,0,0,0-0.001,0c-0.24,0-0.463,0.123-0.592,0.326l-3.884,6.146h-6.112v-0.168L127.244,74.293z M131.207,72.893v-4.341h2.334v4.341
		H131.207z M142.93,124.069h-21.02V96.625h21.02V124.069z M121.91,95.223v-5.891h6.499c0.24,0,0.464-0.123,0.592-0.326l3.5-5.535
		l3.519,5.537c0.129,0.203,0.353,0.324,0.592,0.324h6.318v5.891H121.91z M137.37,72.893h-2.427v-4.341h2.427V72.893z
		 M129.805,68.552v4.341h-2.336v-4.341H129.805z M120.508,107.983H85.57c-0.387,0-0.701,0.312-0.701,0.701
		c0,0.387,0.314,0.699,0.701,0.699h34.938v10.174h-5.725v-3.555c0-1.879-1.529-3.408-3.41-3.408c-1.879,0-3.408,1.529-3.408,3.408
		v3.555h-1.561v-3.555c0-1.879-1.529-3.408-3.409-3.408s-3.409,1.529-3.409,3.408v3.555h-14.3c-0.184,0-0.348,0.074-0.473,0.189
		v-0.994c0.024-0.072,0.046-0.146,0.046-0.225c0-0.08-0.021-0.154-0.046-0.225V95.348h35.694V107.983z M109.367,116.002
		c0-1.105,0.899-2.006,2.006-2.006c1.107,0,2.008,0.9,2.008,2.006v3.555h-4.014V116.002z M100.988,116.002
		c0-1.105,0.9-2.006,2.007-2.006s2.007,0.9,2.007,2.006v3.555h-4.014V116.002z M69.137,133.11c0-2.076,1.689-3.766,3.765-3.766
		c2.076,0,3.765,1.689,3.765,3.766v6.316h-7.529V133.11z M78.068,133.11c0-2.85-2.317-5.168-5.167-5.168
		c-2.849,0-5.167,2.318-5.167,5.168v6.408h-5.434v-20.289h21.11v20.289h-5.343V133.11z M59.698,133.202
		c0-2.85-2.317-5.166-5.167-5.166s-5.168,2.316-5.168,5.166v6.316h-0.924v-6.316c0-2.85-2.318-5.166-5.168-5.166
		c-2.849,0-5.167,2.316-5.167,5.166v6.316h-0.776v-6.316c0-2.85-2.318-5.166-5.168-5.166s-5.167,2.316-5.167,5.166v6.316h-1.151
		v-18.559h6.426h5.418h2.961h5.417h3.267h5.416h6.152v18.559h-1.2V133.202z M8.656,139.518v-4.488
		c0.293-2.707,2.545-4.82,5.274-4.82c2.702,0,4.935,2.072,5.263,4.738v4.57H8.656z M20.596,135.858
		c0.025-0.074,0.047-0.148,0.047-0.23c0-3.76-3.012-6.82-6.712-6.82c-3.469,0-6.331,2.689-6.677,6.123c0,0,0,0,0,0.002l0,0
		c-0.023,0.229-0.035,0.461-0.035,0.695c0,0.061,0.021,0.115,0.035,0.172v3.719H3.42v-14.045h21.02v14.045h-3.844V135.858z
		 M8.792,74.293h10.313l5.334,13.469v0.17h-6.111l-3.885-6.146c-0.128-0.203-0.352-0.326-0.592-0.326l0,0
		c-0.24,0-0.464,0.123-0.592,0.324l-3.906,6.148H3.42v-0.078L8.792,74.293z M12.809,72.893v-4.341h2.334v4.341H12.809z
		 M68.162,59.62c0.388,0,0.701-0.313,0.701-0.701v-2.216h1.122c0.264,0,0.505-0.147,0.624-0.383l1.948-3.823l1.517,3.767
		c0.107,0.266,0.363,0.439,0.65,0.439h1.213v2.216c0,0.388,0.313,0.701,0.701,0.701h6.772v6.071h-21.11V59.62H68.162z
		 M74.209,106.889c0.013-0.053,0.032-0.104,0.032-0.16c0-1.246,0.851-2.26,1.896-2.26s1.896,1.014,1.896,2.26
		c0,0.057,0.02,0.107,0.032,0.16c-0.013,0.053-0.032,0.102-0.032,0.158v10.465h-3.793v-10.465
		C74.241,106.991,74.222,106.942,74.209,106.889z M79.404,106.889c0.012-0.053,0.031-0.104,0.031-0.16
		c0-2.02-1.479-3.662-3.298-3.662c-1.819,0-3.299,1.643-3.299,3.662c0,0.057,0.02,0.107,0.032,0.16
		c-0.013,0.053-0.032,0.102-0.032,0.158v10.779h-0.604v-10.779c0-0.057-0.02-0.105-0.032-0.158c0.013-0.053,0.032-0.104,0.032-0.16
		c0-2.02-1.479-3.662-3.299-3.662c-1.818,0-3.298,1.643-3.298,3.662c0,0.057,0.02,0.107,0.031,0.16
		c-0.012,0.053-0.031,0.102-0.031,0.158v10.779h-3.338V95.348h21.11v22.479h-3.976v-10.779
		C79.436,106.991,79.416,106.942,79.404,106.889z M67.008,106.889c0.013-0.053,0.032-0.104,0.032-0.16
		c0-1.246,0.852-2.26,1.896-2.26c1.046,0,1.896,1.014,1.896,2.26c0,0.057,0.02,0.107,0.032,0.16
		c-0.013,0.053-0.032,0.102-0.032,0.158v10.465H67.04v-10.465C67.04,106.991,67.021,106.942,67.008,106.889z M62.301,67.094h21.11
		v26.852h-21.11V67.094z M60.898,119.557h-5.451v-3.555c0-1.879-1.529-3.408-3.408-3.408c-1.881,0-3.41,1.529-3.41,3.408v3.555
		h-1.864v-3.555c0-1.879-1.53-3.408-3.409-3.408c-1.88,0-3.41,1.529-3.41,3.408v3.555h-1.559v-3.555c0-1.879-1.53-3.408-3.41-3.408
		s-3.41,1.529-3.41,3.408v3.555h-5.725v-10.174h34.938c0.043,0,0.08-0.016,0.119-0.023V119.557z M50.031,116.002
		c0-1.105,0.9-2.006,2.008-2.006c1.106,0,2.007,0.9,2.007,2.006v3.555h-4.015V116.002z M41.348,116.002
		c0-1.105,0.9-2.006,2.008-2.006c1.106,0,2.007,0.9,2.007,2.006v3.555h-4.015V116.002z M32.969,116.002
		c0-1.105,0.9-2.006,2.008-2.006s2.008,0.9,2.008,2.006v3.555h-4.016V116.002z M3.42,96.625h21.02v27.443H3.42V96.625z M3.42,89.333
		h6.318c0.24,0,0.463-0.121,0.592-0.324l3.52-5.537l3.499,5.535c0.128,0.203,0.352,0.326,0.593,0.326h6.498v5.891H3.42V89.333z
		 M77.34,58.218v-2.216c0-0.387-0.314-0.701-0.701-0.701h-1.44l-1.915-4.757c-0.103-0.255-0.345-0.425-0.619-0.438
		c-0.273-0.009-0.531,0.138-0.656,0.382l-2.452,4.813h-1.394c-0.387,0-0.701,0.314-0.701,0.701v2.216H62.68l4.683-10.538h10.599
		c0.051,0,0.095-0.019,0.143-0.028l4.91,10.566H77.34z M68.803,44.438c0.001-0.002,0-0.004,0.002-0.006
		c0.018-0.041,0.02-0.089,0.029-0.134c0.01-0.047,0.027-0.093,0.028-0.14c0-0.002,0.001-0.004,0.001-0.006v-1.122h2.307h2.826h2.215
		v0.393c0,0.102,0.022,0.203,0.065,0.295l1.188,2.559h-9.479L68.803,44.438z M71.871,38.657h1.424v2.972h-1.424V38.657z
		 M76.211,41.629h-1.515v-2.972h1.515V41.629z M70.469,38.657v2.972h-1.605v-2.972H70.469z M60.898,95.348v12.658
		c-0.039-0.008-0.076-0.023-0.119-0.023H25.842V95.348H60.898z M18.881,72.893h-2.335v-4.341h2.335V72.893z M11.406,68.552v4.341
		H8.98v-4.341H11.406z M28.395,139.518v-6.316c0-2.076,1.689-3.766,3.766-3.766s3.765,1.689,3.765,3.766v6.316H28.395z
		 M39.507,139.518v-6.316c0-2.076,1.688-3.766,3.765-3.766s3.766,1.689,3.766,3.766v6.316H39.507z M50.766,139.518v-6.316
		c0-2.076,1.689-3.766,3.766-3.766s3.765,1.689,3.765,3.766v6.316H50.766z M84.813,139.518V120.77
		c0.125,0.115,0.289,0.189,0.473,0.189h15.001h5.416h2.963h5.416h6.426v18.559h-1.697v-6.316c0-2.85-2.318-5.166-5.167-5.166
		s-5.167,2.316-5.167,5.166v6.316h-0.777v-6.316c0-2.85-2.318-5.166-5.167-5.166c-2.85,0-5.167,2.316-5.167,5.166v6.316h-1.027
		v-6.316c0-2.85-2.317-5.166-5.167-5.166c-2.849,0-5.167,2.316-5.167,5.166v6.316h-0.957H84.813z M87.406,139.518v-6.316
		c0-2.076,1.689-3.766,3.765-3.766c2.077,0,3.766,1.689,3.766,3.766v6.316H87.406z M98.768,139.518v-6.316
		c0-2.076,1.688-3.766,3.765-3.766c2.075,0,3.765,1.689,3.765,3.766v6.316H98.768z M109.879,139.518v-6.316
		c0-2.076,1.688-3.766,3.765-3.766c2.075,0,3.765,1.689,3.765,3.766v6.316H109.879z"/>
	<path fill="#FFFFFF" d="M125.521,106.51v13.748c0,0.389,0.313,0.701,0.701,0.701h11.94c0.387,0,0.701-0.312,0.701-0.701V106.45
		c0.014-0.057,0.034-0.109,0.034-0.17c0-0.23-0.013-0.459-0.034-0.686v-0.01c0-0.004-0.002-0.008-0.002-0.012
		c-0.35-3.43-3.211-6.113-6.676-6.113c-3.701,0-6.711,3.061-6.711,6.82C125.475,106.362,125.494,106.436,125.521,106.51z
		 M133.997,106.286v5.936h-2.79v-5.936H133.997z M137.461,106.286v5.936h-2.062v-5.936H137.461z M133.997,113.624v5.934h-2.79
		v-5.934H133.997z M129.805,112.221h-2.882v-5.936h2.882V112.221z M126.923,113.624h2.882v5.934h-2.882V113.624z M135.398,119.557
		v-5.934h2.062v5.934H135.398z M132.186,100.864c2.453,0,4.518,1.709,5.124,4.02h-10.249
		C127.668,102.573,129.732,100.864,132.186,100.864z"/>
	<path fill="#FFFFFF" d="M135.387,91.76v-0.123c0-0.043-0.018-0.08-0.023-0.119c-0.18-1.402-1.354-2.494-2.785-2.494
		c-1.447,0-2.63,1.115-2.788,2.541c-0.003,0.025-0.015,0.047-0.015,0.072v0.074c-0.004,0.059-0.018,0.113-0.018,0.172
		c0,0.029,0.014,0.055,0.018,0.084v1.566c0,0.387,0.313,0.701,0.7,0.701h4.21c0.388,0,0.701-0.314,0.701-0.701v-1.59
		c0.002-0.021,0.012-0.039,0.012-0.061C135.398,91.84,135.389,91.801,135.387,91.76z M131.178,92.834v-1.121
		c0.082-0.723,0.676-1.287,1.4-1.287c0.74,0,1.344,0.588,1.406,1.332v1.076H131.178z"/>
</g>
</svg>
