<?xml version="1.0" encoding="utf-8"?>
<!-- Generator: Adobe Illustrator 16.0.0, SVG Export Plug-In . SVG Version: 6.00 Build 0)  -->
<!DOCTYPE svg PUBLIC "-//W3C//DTD SVG 1.1//EN" "http://www.w3.org/Graphics/SVG/1.1/DTD/svg11.dtd">
<svg version="1.1" id="Layer_1" xmlns="http://www.w3.org/2000/svg" xmlns:xlink="http://www.w3.org/1999/xlink" x="0px" y="0px"
	 width="146.351px" height="144px" viewBox="0 0 146.351 144" enable-background="new 0 0 146.351 144" xml:space="preserve">
<g>
	<g>
		<line fill="#FFFFFF" x1="9.016" y1="140.63" x2="138.637" y2="140.63"/>
		<path fill="#FFFFFF" d="M138.637,141.437H9.016c-0.443,0-0.805-0.361-0.805-0.807c0-0.443,0.361-0.805,0.805-0.805h129.621
			c0.445,0,0.805,0.361,0.805,0.805C139.441,141.076,139.082,141.437,138.637,141.437z"/>
	</g>
	<path fill="#FFFFFF" d="M31.438,141.437c-0.443,0-0.805-0.361-0.805-0.807V97.587c0-0.443,0.361-0.805,0.805-0.805h86.742
		c0.443,0,0.805,0.361,0.805,0.805v42.062c0,0.445-0.361,0.805-0.805,0.805c-0.445,0-0.807-0.359-0.807-0.805V98.394H32.244v42.236
		C32.244,141.076,31.883,141.437,31.438,141.437z"/>
	<path fill="#FFFFFF" d="M58.605,141.437c-0.445,0-0.805-0.361-0.805-0.807v-22.371c-0.102-0.941-0.656-10.334,16.824-14.416
		c0.432-0.104,0.865,0.166,0.967,0.6s-0.168,0.867-0.6,0.967c-16.498,3.854-15.633,12.336-15.588,12.695
		c0.004,0.033,0.006,0.072,0.006,0.105v22.42C59.41,141.076,59.051,141.437,58.605,141.437z"/>
	<path fill="#FFFFFF" d="M91.48,141.437c-0.445,0-0.805-0.361-0.805-0.807v-22.42c0-0.037,0.002-0.074,0.006-0.109
		c0.045-0.355,0.91-8.838-15.586-12.691c-0.434-0.1-0.703-0.533-0.602-0.967s0.533-0.703,0.967-0.6
		c17.48,4.082,16.926,13.475,16.824,14.416v22.371C92.285,141.076,91.926,141.437,91.48,141.437z"/>
	<path fill="#FFFFFF" d="M124.398,95.121H25.873c-0.445,0-0.807-0.359-0.807-0.805s0.361-0.807,0.807-0.807h98.525
		c0.443,0,0.805,0.361,0.805,0.807S124.842,95.121,124.398,95.121z"/>
	<path fill="#FFFFFF" d="M123.416,78.427H25.873c-0.445,0-0.807-0.361-0.807-0.805c0-0.445,0.361-0.807,0.807-0.807h97.543
		c0.445,0,0.805,0.361,0.805,0.807C124.221,78.066,123.861,78.427,123.416,78.427z"/>
	<path fill="#FFFFFF" d="M28.002,95.121c-0.445,0-0.807-0.359-0.807-0.805V77.623c0-0.445,0.361-0.807,0.807-0.807
		c0.443,0,0.805,0.361,0.805,0.807v16.693C28.807,94.761,28.445,95.121,28.002,95.121z"/>
	<path fill="#FFFFFF" d="M46.494,95.121c-0.445,0-0.805-0.359-0.805-0.805V77.623c0-0.445,0.359-0.807,0.805-0.807
		s0.805,0.361,0.805,0.807v16.693C47.299,94.761,46.939,95.121,46.494,95.121z"/>
	<path fill="#FFFFFF" d="M46.168,86.775H25.873c-0.445,0-0.807-0.361-0.807-0.807s0.361-0.805,0.807-0.805h20.295
		c0.443,0,0.805,0.359,0.805,0.805S46.611,86.775,46.168,86.775z"/>
	<path fill="#FFFFFF" d="M43.793,78.017H31.438c-0.443,0-0.805-0.359-0.805-0.805V60.929c0-0.445,0.361-0.805,0.805-0.805h12.355
		c0.445,0,0.807,0.359,0.807,0.805v16.284C44.6,77.658,44.238,78.017,43.793,78.017z M32.244,76.408h10.744V61.733H32.244V76.408z"
		/>
	<path fill="#FFFFFF" d="M54.186,141.437h-8.674c-0.443,0-0.805-0.361-0.805-0.807V97.587c0-0.443,0.361-0.805,0.805-0.805h8.674
		c0.447,0,0.807,0.361,0.807,0.805v43.043C54.992,141.076,54.633,141.437,54.186,141.437z M46.316,139.826h7.064V98.394h-7.064
		V139.826z"/>
	<path fill="#FFFFFF" d="M39.131,141.437c-0.445,0-0.807-0.361-0.807-0.807V97.587c0-0.443,0.361-0.805,0.807-0.805
		s0.805,0.361,0.805,0.805v43.043C39.936,141.076,39.576,141.437,39.131,141.437z"/>
	<path fill="#FFFFFF" d="M112.449,141.437h-8.674c-0.445,0-0.805-0.361-0.805-0.807V97.587c0-0.443,0.359-0.805,0.805-0.805h8.674
		c0.445,0,0.805,0.361,0.805,0.805v43.043C113.254,141.076,112.895,141.437,112.449,141.437z M104.58,139.826h7.064V98.394h-7.064
		V139.826z"/>
	<path fill="#FFFFFF" d="M96.412,141.437c-0.445,0-0.807-0.361-0.807-0.807V97.587c0-0.443,0.361-0.805,0.807-0.805
		c0.443,0,0.805,0.361,0.805,0.805v43.043C97.217,141.076,96.855,141.437,96.412,141.437z"/>
	<path fill="#FFFFFF" d="M61.447,107.394c-2.023,0-3.668-1.645-3.668-3.668c0-2.025,1.645-3.67,3.668-3.67s3.67,1.645,3.67,3.67
		C65.117,105.75,63.471,107.394,61.447,107.394z M61.447,101.667c-1.135,0-2.057,0.922-2.057,2.059c0,1.135,0.922,2.057,2.057,2.057
		s2.059-0.922,2.059-2.057C63.506,102.589,62.582,101.667,61.447,101.667z"/>
	<path fill="#FFFFFF" d="M88.639,107.394c-2.023,0-3.67-1.645-3.67-3.668c0-2.025,1.646-3.67,3.67-3.67s3.67,1.645,3.67,3.67
		C92.309,105.75,90.662,107.394,88.639,107.394z M88.639,101.667c-1.135,0-2.059,0.922-2.059,2.059c0,1.135,0.924,2.057,2.059,2.057
		s2.059-0.922,2.059-2.057C90.697,102.589,89.773,101.667,88.639,101.667z"/>
	<path fill="#FFFFFF" d="M118.18,78.427H105.74c-0.445,0-0.805-0.361-0.805-0.805V65.17H43.793c-0.443,0-0.805-0.361-0.805-0.806
		c0-0.445,0.361-0.806,0.805-0.806h61.143v-2.63c0-0.445,0.359-0.805,0.805-0.805h12.439c0.443,0,0.805,0.359,0.805,0.805v16.694
		C118.984,78.066,118.623,78.427,118.18,78.427z M106.545,76.816h10.828V61.733h-10.828V76.816z"/>
	<path fill="#FFFFFF" d="M103.613,95.121c-0.445,0-0.805-0.359-0.805-0.805V77.623c0-0.445,0.359-0.807,0.805-0.807
		s0.807,0.361,0.807,0.807v16.693C104.42,94.761,104.059,95.121,103.613,95.121z"/>
	<path fill="#FFFFFF" d="M122.105,95.121c-0.445,0-0.805-0.359-0.805-0.805V77.623c0-0.445,0.359-0.807,0.805-0.807
		s0.805,0.361,0.805,0.807v16.693C122.91,94.761,122.551,95.121,122.105,95.121z"/>
	<path fill="#FFFFFF" d="M124.725,86.775H104.43c-0.443,0-0.805-0.361-0.805-0.807s0.361-0.805,0.805-0.805h20.295
		c0.445,0,0.805,0.359,0.805,0.805S125.17,86.775,124.725,86.775z"/>
	<path fill="#FFFFFF" d="M32.584,83.664c-0.445,0-0.807-0.359-0.807-0.805v-2.045c0-0.445,0.361-0.805,0.807-0.805
		s0.805,0.359,0.805,0.805v2.045C33.389,83.304,33.029,83.664,32.584,83.664z"/>
	<path fill="#FFFFFF" d="M35.773,83.664c-0.443,0-0.805-0.359-0.805-0.805v-2.045c0-0.445,0.361-0.805,0.805-0.805
		c0.445,0,0.807,0.359,0.807,0.805v2.045C36.58,83.304,36.219,83.664,35.773,83.664z"/>
	<path fill="#FFFFFF" d="M39.131,83.664c-0.445,0-0.805-0.359-0.805-0.805v-2.045c0-0.445,0.359-0.805,0.805-0.805
		s0.805,0.359,0.805,0.805v2.045C39.936,83.304,39.576,83.664,39.131,83.664z"/>
	<path fill="#FFFFFF" d="M42.648,83.664c-0.445,0-0.805-0.359-0.805-0.805v-2.045c0-0.445,0.359-0.805,0.805-0.805
		s0.805,0.359,0.805,0.805v2.045C43.453,83.304,43.094,83.664,42.648,83.664z"/>
	<path fill="#FFFFFF" d="M32.584,92.339c-0.445,0-0.807-0.361-0.807-0.807v-2.045c0-0.443,0.361-0.805,0.807-0.805
		s0.805,0.361,0.805,0.805v2.045C33.389,91.978,33.029,92.339,32.584,92.339z"/>
	<path fill="#FFFFFF" d="M35.773,92.339c-0.443,0-0.805-0.361-0.805-0.807v-2.045c0-0.443,0.361-0.805,0.805-0.805
		c0.445,0,0.807,0.361,0.807,0.805v2.045C36.58,91.978,36.219,92.339,35.773,92.339z"/>
	<path fill="#FFFFFF" d="M39.131,92.339c-0.445,0-0.805-0.361-0.805-0.807v-2.045c0-0.443,0.359-0.805,0.805-0.805
		s0.805,0.361,0.805,0.805v2.045C39.936,91.978,39.576,92.339,39.131,92.339z"/>
	<path fill="#FFFFFF" d="M42.648,92.339c-0.445,0-0.805-0.361-0.805-0.807v-2.045c0-0.443,0.359-0.805,0.805-0.805
		s0.805,0.361,0.805,0.805v2.045C43.453,91.978,43.094,92.339,42.648,92.339z"/>
	<g>
		<path fill="#FFFFFF" d="M49.441,58.951H26.529c-0.445,0-0.807-0.36-0.807-0.806c0-0.444,0.361-0.806,0.807-0.806h22.912
			c0.445,0,0.805,0.361,0.805,0.806C50.246,58.591,49.887,58.951,49.441,58.951z"/>
		<g>
			<path fill="#FFFFFF" d="M49.441,49.294H25.873c-0.445,0-0.807-0.36-0.807-0.806c0-0.443,0.361-0.805,0.807-0.805h23.568
				c0.445,0,0.805,0.361,0.805,0.805C50.246,48.934,49.887,49.294,49.441,49.294z"/>
			<path fill="#FFFFFF" d="M28.984,58.951c-0.445,0-0.807-0.36-0.807-0.806v-9.657c0-0.443,0.361-0.805,0.807-0.805
				c0.443,0,0.805,0.361,0.805,0.805v9.657C29.789,58.591,29.428,58.951,28.984,58.951z"/>
			<path fill="#FFFFFF" d="M47.312,58.951c-0.443,0-0.805-0.36-0.805-0.806v-9.657c0-0.443,0.361-0.805,0.805-0.805
				c0.445,0,0.807,0.361,0.807,0.805v9.657C48.119,58.591,47.758,58.951,47.312,58.951z"/>
			<path fill="#FFFFFF" d="M42.402,49.294c-0.443,0-0.805-0.36-0.805-0.806V35.874h-7.553v12.614c0,0.445-0.361,0.806-0.807,0.806
				c-0.443,0-0.805-0.36-0.805-0.806V35.069c0-0.445,0.361-0.806,0.805-0.806h9.164c0.445,0,0.807,0.36,0.807,0.806v13.419
				C43.209,48.934,42.848,49.294,42.402,49.294z"/>
			<path fill="#FFFFFF" d="M33.402,54.859c-0.445,0-0.805-0.36-0.805-0.806v-2.046c0-0.444,0.359-0.805,0.805-0.805
				s0.805,0.36,0.805,0.805v2.046C34.207,54.499,33.848,54.859,33.402,54.859z"/>
			<path fill="#FFFFFF" d="M36.592,54.859c-0.445,0-0.805-0.36-0.805-0.806v-2.046c0-0.444,0.359-0.805,0.805-0.805
				s0.805,0.36,0.805,0.805v2.046C37.396,54.499,37.037,54.859,36.592,54.859z"/>
			<path fill="#FFFFFF" d="M39.949,54.859c-0.445,0-0.807-0.36-0.807-0.806v-2.046c0-0.444,0.361-0.805,0.807-0.805
				s0.805,0.36,0.805,0.805v2.046C40.754,54.499,40.395,54.859,39.949,54.859z"/>
			<path fill="#FFFFFF" d="M43.465,54.859c-0.443,0-0.805-0.36-0.805-0.806v-2.046c0-0.444,0.361-0.805,0.805-0.805
				c0.445,0,0.807,0.36,0.807,0.805v2.046C44.271,54.499,43.91,54.859,43.465,54.859z"/>
			<path fill="#FFFFFF" d="M46.266,26.675H29.801c-0.445,0-0.805-0.361-0.805-0.805c0-0.445,0.359-0.806,0.805-0.806h16.465
				c0.445,0,0.805,0.36,0.805,0.806C47.07,26.313,46.711,26.675,46.266,26.675z"/>
			<path fill="#FFFFFF" d="M46.266,33.42H30.26c-0.445,0-0.807-0.361-0.807-0.805c0-0.445,0.361-0.806,0.807-0.806h16.006
				c0.445,0,0.805,0.36,0.805,0.806C47.07,33.059,46.711,33.42,46.266,33.42z"/>
			<path fill="#FFFFFF" d="M31.973,33.42c-0.443,0-0.805-0.361-0.805-0.805V25.87c0-0.445,0.361-0.806,0.805-0.806
				c0.445,0,0.807,0.36,0.807,0.806v6.745C32.779,33.059,32.418,33.42,31.973,33.42z"/>
			<path fill="#FFFFFF" d="M44.779,33.42c-0.445,0-0.805-0.361-0.805-0.805V25.87c0-0.445,0.359-0.806,0.805-0.806
				s0.805,0.36,0.805,0.806v6.745C45.584,33.059,45.225,33.42,44.779,33.42z"/>
			<path fill="#FFFFFF" d="M41.348,26.675c-0.443,0-0.805-0.361-0.805-0.805v-8.571h-4.791v8.571c0,0.443-0.359,0.805-0.807,0.805
				c-0.443,0-0.805-0.361-0.805-0.805v-9.376c0-0.446,0.361-0.806,0.805-0.806h6.402c0.445,0,0.807,0.359,0.807,0.806v9.376
				C42.154,26.313,41.793,26.675,41.348,26.675z"/>
			<path fill="#FFFFFF" d="M35.061,30.562c-0.445,0-0.805-0.361-0.805-0.806v-1.43c0-0.445,0.359-0.806,0.805-0.806
				s0.805,0.36,0.805,0.806v1.43C35.865,30.201,35.506,30.562,35.061,30.562z"/>
			<path fill="#FFFFFF" d="M37.289,30.562c-0.443,0-0.805-0.361-0.805-0.806v-1.43c0-0.445,0.361-0.806,0.805-0.806
				c0.445,0,0.807,0.36,0.807,0.806v1.43C38.096,30.201,37.734,30.562,37.289,30.562z"/>
			<path fill="#FFFFFF" d="M39.633,30.562c-0.443,0-0.805-0.361-0.805-0.806v-1.43c0-0.445,0.361-0.806,0.805-0.806
				c0.445,0,0.807,0.36,0.807,0.806v1.43C40.439,30.201,40.078,30.562,39.633,30.562z"/>
			<path fill="#FFFFFF" d="M42.092,30.562c-0.445,0-0.807-0.361-0.807-0.806v-1.43c0-0.445,0.361-0.806,0.807-0.806
				c0.443,0,0.805,0.36,0.805,0.806v1.43C42.896,30.201,42.535,30.562,42.092,30.562z"/>
			<path fill="#FFFFFF" d="M34.947,17.299c-0.039,0-0.076-0.003-0.117-0.009c-0.457-0.065-4.494-0.727-5.02-3.375
				c-0.463-2.323,2.023-5.065,7.6-8.383c0.381-0.228,0.875-0.102,1.104,0.28c0.227,0.382,0.102,0.877-0.281,1.104
				c-6.596,3.923-6.982,5.982-6.844,6.685c0.262,1.314,2.803,1.969,3.674,2.095c0.439,0.064,0.746,0.473,0.682,0.913
				C35.686,17.011,35.342,17.299,34.947,17.299z"/>
			<path fill="#FFFFFF" d="M41.158,17.299c-0.395,0-0.738-0.288-0.797-0.689c-0.062-0.44,0.242-0.849,0.682-0.913
				c0.871-0.128,3.414-0.789,3.672-2.097c0.141-0.702-0.248-2.761-6.842-6.683c-0.383-0.228-0.51-0.723-0.281-1.104
				c0.227-0.382,0.721-0.508,1.104-0.28c5.576,3.317,8.062,6.06,7.6,8.384c-0.527,2.647-4.562,3.309-5.021,3.374
				C41.234,17.296,41.197,17.299,41.158,17.299z"/>
			<path fill="#FFFFFF" d="M38.033,7.029c-0.443,0-0.807-0.36-0.807-0.806V1.806C37.227,1.36,37.59,1,38.033,1
				c0.445,0,0.805,0.36,0.805,0.806v4.418C38.838,6.669,38.479,7.029,38.033,7.029z"/>
		</g>
	</g>
	<g>
		<path fill="#FFFFFF" d="M123.09,58.951h-22.912c-0.445,0-0.807-0.36-0.807-0.806c0-0.444,0.361-0.806,0.807-0.806h22.912
			c0.445,0,0.805,0.361,0.805,0.806C123.895,58.591,123.535,58.951,123.09,58.951z"/>
		<g>
			<path fill="#FFFFFF" d="M123.09,49.294H99.52c-0.443,0-0.805-0.36-0.805-0.806c0-0.443,0.361-0.805,0.805-0.805h23.57
				c0.445,0,0.805,0.361,0.805,0.805C123.895,48.934,123.535,49.294,123.09,49.294z"/>
			<path fill="#FFFFFF" d="M102.631,58.951c-0.443,0-0.805-0.36-0.805-0.806v-9.657c0-0.443,0.361-0.805,0.805-0.805
				c0.445,0,0.807,0.361,0.807,0.805v9.657C103.438,58.591,103.076,58.951,102.631,58.951z"/>
			<path fill="#FFFFFF" d="M120.961,58.951c-0.445,0-0.805-0.36-0.805-0.806v-9.657c0-0.443,0.359-0.805,0.805-0.805
				s0.805,0.361,0.805,0.805v9.657C121.766,58.591,121.406,58.951,120.961,58.951z"/>
			<path fill="#FFFFFF" d="M116.051,49.294c-0.445,0-0.805-0.36-0.805-0.806V35.874h-7.553v12.614c0,0.445-0.361,0.806-0.807,0.806
				c-0.443,0-0.805-0.36-0.805-0.806V35.069c0-0.445,0.361-0.806,0.805-0.806h9.164c0.445,0,0.805,0.36,0.805,0.806v13.419
				C116.855,48.934,116.496,49.294,116.051,49.294z"/>
			<path fill="#FFFFFF" d="M107.051,54.859c-0.445,0-0.807-0.36-0.807-0.806v-2.046c0-0.444,0.361-0.805,0.807-0.805
				c0.443,0,0.805,0.36,0.805,0.805v2.046C107.855,54.499,107.494,54.859,107.051,54.859z"/>
			<path fill="#FFFFFF" d="M110.24,54.859c-0.445,0-0.805-0.36-0.805-0.806v-2.046c0-0.444,0.359-0.805,0.805-0.805
				s0.805,0.36,0.805,0.805v2.046C111.045,54.499,110.686,54.859,110.24,54.859z"/>
			<path fill="#FFFFFF" d="M113.598,54.859c-0.445,0-0.807-0.36-0.807-0.806v-2.046c0-0.444,0.361-0.805,0.807-0.805
				c0.443,0,0.805,0.36,0.805,0.805v2.046C114.402,54.499,114.041,54.859,113.598,54.859z"/>
			<path fill="#FFFFFF" d="M117.113,54.859c-0.445,0-0.805-0.36-0.805-0.806v-2.046c0-0.444,0.359-0.805,0.805-0.805
				s0.807,0.36,0.807,0.805v2.046C117.92,54.499,117.559,54.859,117.113,54.859z"/>
			<path fill="#FFFFFF" d="M119.914,26.675h-16.465c-0.445,0-0.807-0.361-0.807-0.805c0-0.445,0.361-0.806,0.807-0.806h16.465
				c0.445,0,0.805,0.36,0.805,0.806C120.719,26.313,120.359,26.675,119.914,26.675z"/>
			<path fill="#FFFFFF" d="M119.914,33.42h-16.008c-0.445,0-0.805-0.361-0.805-0.805c0-0.445,0.359-0.806,0.805-0.806h16.008
				c0.445,0,0.805,0.36,0.805,0.806C120.719,33.059,120.359,33.42,119.914,33.42z"/>
			<path fill="#FFFFFF" d="M105.621,33.42c-0.445,0-0.805-0.361-0.805-0.805V25.87c0-0.445,0.359-0.806,0.805-0.806
				s0.805,0.36,0.805,0.806v6.745C106.426,33.059,106.066,33.42,105.621,33.42z"/>
			<path fill="#FFFFFF" d="M118.428,33.42c-0.445,0-0.807-0.361-0.807-0.805V25.87c0-0.445,0.361-0.806,0.807-0.806
				c0.443,0,0.805,0.36,0.805,0.806v6.745C119.232,33.059,118.871,33.42,118.428,33.42z"/>
			<path fill="#FFFFFF" d="M114.996,26.675c-0.445,0-0.805-0.361-0.805-0.805v-8.571h-4.793v8.571c0,0.443-0.359,0.805-0.805,0.805
				s-0.805-0.361-0.805-0.805v-9.376c0-0.446,0.359-0.806,0.805-0.806h6.402c0.445,0,0.805,0.359,0.805,0.806v9.376
				C115.801,26.313,115.441,26.675,114.996,26.675z"/>
			<path fill="#FFFFFF" d="M108.709,30.562c-0.445,0-0.807-0.361-0.807-0.806v-1.43c0-0.445,0.361-0.806,0.807-0.806
				c0.443,0,0.805,0.36,0.805,0.806v1.43C109.514,30.201,109.152,30.562,108.709,30.562z"/>
			<path fill="#FFFFFF" d="M110.938,30.562c-0.445,0-0.805-0.361-0.805-0.806v-1.43c0-0.445,0.359-0.806,0.805-0.806
				s0.805,0.36,0.805,0.806v1.43C111.742,30.201,111.383,30.562,110.938,30.562z"/>
			<path fill="#FFFFFF" d="M113.281,30.562c-0.445,0-0.805-0.361-0.805-0.806v-1.43c0-0.445,0.359-0.806,0.805-0.806
				s0.805,0.36,0.805,0.806v1.43C114.086,30.201,113.727,30.562,113.281,30.562z"/>
			<path fill="#FFFFFF" d="M115.74,30.562c-0.445,0-0.807-0.361-0.807-0.806v-1.43c0-0.445,0.361-0.806,0.807-0.806
				c0.443,0,0.805,0.36,0.805,0.806v1.43C116.545,30.201,116.184,30.562,115.74,30.562z"/>
			<path fill="#FFFFFF" d="M108.596,17.299c-0.039,0-0.078-0.003-0.117-0.009c-0.459-0.065-4.494-0.727-5.021-3.374
				c-0.461-2.324,2.023-5.066,7.6-8.384c0.383-0.229,0.877-0.102,1.105,0.28c0.227,0.382,0.102,0.877-0.281,1.104
				c-6.596,3.924-6.984,5.982-6.844,6.685c0.262,1.314,2.803,1.969,3.672,2.095c0.441,0.064,0.746,0.473,0.682,0.913
				C109.332,17.011,108.988,17.299,108.596,17.299z"/>
			<path fill="#FFFFFF" d="M114.805,17.299c-0.393,0-0.738-0.288-0.795-0.689c-0.064-0.44,0.24-0.849,0.68-0.913
				c0.873-0.128,3.416-0.789,3.674-2.097c0.139-0.702-0.25-2.761-6.844-6.683c-0.383-0.228-0.508-0.723-0.279-1.104
				c0.227-0.382,0.721-0.508,1.104-0.28c5.576,3.317,8.062,6.06,7.6,8.383c-0.527,2.648-4.562,3.31-5.021,3.375
				C114.883,17.296,114.844,17.299,114.805,17.299z"/>
			<path fill="#FFFFFF" d="M111.682,7.029c-0.445,0-0.807-0.36-0.807-0.806V1.806c0-0.445,0.361-0.806,0.807-0.806
				c0.443,0,0.805,0.36,0.805,0.806v4.418C112.486,6.669,112.125,7.029,111.682,7.029z"/>
		</g>
	</g>
	<path fill="#FFFFFF" d="M108.195,83.664c-0.445,0-0.805-0.359-0.805-0.805v-2.045c0-0.445,0.359-0.805,0.805-0.805
		S109,80.369,109,80.814v2.045C109,83.304,108.641,83.664,108.195,83.664z"/>
	<path fill="#FFFFFF" d="M111.387,83.664c-0.445,0-0.805-0.359-0.805-0.805v-2.045c0-0.445,0.359-0.805,0.805-0.805
		s0.805,0.359,0.805,0.805v2.045C112.191,83.304,111.832,83.664,111.387,83.664z"/>
	<path fill="#FFFFFF" d="M114.744,83.664c-0.445,0-0.807-0.359-0.807-0.805v-2.045c0-0.445,0.361-0.805,0.807-0.805
		c0.443,0,0.805,0.359,0.805,0.805v2.045C115.549,83.304,115.188,83.664,114.744,83.664z"/>
	<path fill="#FFFFFF" d="M118.26,83.664c-0.445,0-0.805-0.359-0.805-0.805v-2.045c0-0.445,0.359-0.805,0.805-0.805
		s0.805,0.359,0.805,0.805v2.045C119.064,83.304,118.705,83.664,118.26,83.664z"/>
	<path fill="#FFFFFF" d="M108.195,92.339c-0.445,0-0.805-0.361-0.805-0.807v-2.045c0-0.443,0.359-0.805,0.805-0.805
		S109,89.044,109,89.488v2.045C109,91.978,108.641,92.339,108.195,92.339z"/>
	<path fill="#FFFFFF" d="M111.387,92.339c-0.445,0-0.805-0.361-0.805-0.807v-2.045c0-0.443,0.359-0.805,0.805-0.805
		s0.805,0.361,0.805,0.805v2.045C112.191,91.978,111.832,92.339,111.387,92.339z"/>
	<path fill="#FFFFFF" d="M114.744,92.339c-0.445,0-0.807-0.361-0.807-0.807v-2.045c0-0.443,0.361-0.805,0.807-0.805
		c0.443,0,0.805,0.361,0.805,0.805v2.045C115.549,91.978,115.188,92.339,114.744,92.339z"/>
	<path fill="#FFFFFF" d="M118.26,92.339c-0.445,0-0.805-0.361-0.805-0.807v-2.045c0-0.443,0.359-0.805,0.805-0.805
		s0.805,0.361,0.805,0.805v2.045C119.064,91.978,118.705,92.339,118.26,92.339z"/>
	<path fill="#FFFFFF" d="M42.508,110.341c-0.443,0-0.805-0.361-0.805-0.807v-2.863c0-0.445,0.361-0.807,0.805-0.807
		c0.445,0,0.807,0.361,0.807,0.807v2.863C43.314,109.98,42.953,110.341,42.508,110.341z"/>
	<path fill="#FFFFFF" d="M42.508,116.724c-0.443,0-0.805-0.361-0.805-0.807v-2.863c0-0.445,0.361-0.805,0.805-0.805
		c0.445,0,0.807,0.359,0.807,0.805v2.863C43.314,116.363,42.953,116.724,42.508,116.724z"/>
	<path fill="#FFFFFF" d="M42.508,124.294c-0.443,0-0.805-0.361-0.805-0.807v-2.863c0-0.445,0.361-0.807,0.805-0.807
		c0.445,0,0.807,0.361,0.807,0.807v2.863C43.314,123.933,42.953,124.294,42.508,124.294z"/>
	<path fill="#FFFFFF" d="M42.508,131.863c-0.443,0-0.805-0.361-0.805-0.807v-2.863c0-0.445,0.361-0.805,0.805-0.805
		c0.445,0,0.807,0.359,0.807,0.805v2.863C43.314,131.501,42.953,131.863,42.508,131.863z"/>
	<path fill="#FFFFFF" d="M100.445,110.341c-0.445,0-0.805-0.361-0.805-0.807v-2.863c0-0.445,0.359-0.807,0.805-0.807
		s0.805,0.361,0.805,0.807v2.863C101.25,109.98,100.891,110.341,100.445,110.341z"/>
	<path fill="#FFFFFF" d="M100.445,116.724c-0.445,0-0.805-0.361-0.805-0.807v-2.863c0-0.445,0.359-0.805,0.805-0.805
		s0.805,0.359,0.805,0.805v2.863C101.25,116.363,100.891,116.724,100.445,116.724z"/>
	<path fill="#FFFFFF" d="M100.445,124.294c-0.445,0-0.805-0.361-0.805-0.807v-2.863c0-0.445,0.359-0.807,0.805-0.807
		s0.805,0.361,0.805,0.807v2.863C101.25,123.933,100.891,124.294,100.445,124.294z"/>
	<path fill="#FFFFFF" d="M100.445,131.863c-0.445,0-0.805-0.361-0.805-0.807v-2.863c0-0.445,0.359-0.805,0.805-0.805
		s0.805,0.359,0.805,0.805v2.863C101.25,131.501,100.891,131.863,100.445,131.863z"/>
	<path fill="#FFFFFF" d="M50.475,94.451c-0.443,0-0.805-0.359-0.805-0.805v-8.457c-0.025-0.471,0.072-2.668,3.912-3.564
		c0.432-0.102,0.865,0.168,0.967,0.6c0.102,0.436-0.168,0.867-0.602,0.969c-2.709,0.633-2.674,1.84-2.67,1.893
		c0.004,0.035,0.004,0.045,0.004,0.08v8.48C51.281,94.091,50.92,94.451,50.475,94.451z"/>
	<path fill="#FFFFFF" d="M57.15,94.451c-0.445,0-0.807-0.359-0.807-0.805v-8.48c0-0.037,0.004-0.074,0.008-0.109
		c0-0.023,0.037-1.23-2.674-1.863c-0.434-0.102-0.703-0.533-0.602-0.969c0.102-0.432,0.535-0.701,0.967-0.6
		c3.842,0.896,3.938,3.094,3.912,3.564v8.457C57.955,94.091,57.596,94.451,57.15,94.451z"/>
	<path fill="#FFFFFF" d="M61,94.451c-0.445,0-0.807-0.359-0.807-0.805v-8.457c-0.025-0.471,0.072-2.668,3.912-3.564
		c0.432-0.102,0.865,0.168,0.967,0.6c0.102,0.436-0.168,0.867-0.602,0.969c-2.711,0.633-2.674,1.84-2.67,1.893
		c0.006,0.035,0.004,0.043,0.004,0.08v8.48C61.805,94.091,61.443,94.451,61,94.451z"/>
	<path fill="#FFFFFF" d="M67.674,94.451c-0.445,0-0.805-0.359-0.805-0.805v-8.48c0-0.035,0.002-0.072,0.006-0.109
		c0-0.023,0.037-1.23-2.674-1.863c-0.434-0.102-0.703-0.533-0.602-0.969c0.102-0.432,0.535-0.701,0.967-0.6
		c3.84,0.896,3.938,3.094,3.912,3.564v8.457C68.479,94.091,68.117,94.451,67.674,94.451z"/>
	<path fill="#FFFFFF" d="M71.57,94.451c-0.443,0-0.805-0.359-0.805-0.805v-8.457c-0.025-0.471,0.07-2.668,3.91-3.564
		c0.432-0.102,0.867,0.168,0.969,0.6c0.102,0.436-0.168,0.867-0.602,0.969c-2.719,0.635-2.676,1.852-2.674,1.863
		c0.004,0.035,0.006,0.072,0.006,0.109v8.48C72.375,94.091,72.016,94.451,71.57,94.451z"/>
	<path fill="#FFFFFF" d="M78.246,94.451c-0.445,0-0.807-0.359-0.807-0.805v-8.48c0-0.037,0.004-0.072,0.008-0.109
		c0-0.023,0.037-1.23-2.674-1.863c-0.434-0.102-0.703-0.533-0.602-0.969c0.1-0.432,0.535-0.701,0.967-0.6
		c3.84,0.896,3.938,3.094,3.912,3.564v8.457C79.051,94.091,78.689,94.451,78.246,94.451z"/>
	<path fill="#FFFFFF" d="M82.527,94.451c-0.443,0-0.805-0.359-0.805-0.805v-8.457c-0.025-0.471,0.07-2.668,3.912-3.564
		c0.432-0.102,0.865,0.168,0.967,0.6c0.102,0.436-0.168,0.867-0.602,0.969c-2.719,0.635-2.676,1.852-2.674,1.863
		c0.004,0.037,0.008,0.072,0.008,0.109v8.48C83.334,94.091,82.973,94.451,82.527,94.451z"/>
	<path fill="#FFFFFF" d="M89.203,94.451c-0.445,0-0.807-0.359-0.807-0.805v-8.48c0-0.037,0.002-0.074,0.008-0.109
		c0-0.023,0.037-1.23-2.674-1.863c-0.434-0.102-0.703-0.533-0.602-0.969c0.102-0.432,0.535-0.701,0.969-0.6
		c3.84,0.896,3.936,3.094,3.91,3.564v8.457C90.008,94.091,89.646,94.451,89.203,94.451z"/>
	<path fill="#FFFFFF" d="M92.07,94.451c-0.445,0-0.807-0.359-0.807-0.805v-8.457c-0.025-0.471,0.072-2.668,3.912-3.564
		c0.434-0.102,0.865,0.168,0.967,0.6c0.102,0.436-0.168,0.867-0.602,0.969c-2.711,0.633-2.674,1.84-2.67,1.893
		c0.004,0.035,0.004,0.043,0.004,0.08v8.48C92.875,94.091,92.514,94.451,92.07,94.451z"/>
	<path fill="#FFFFFF" d="M98.744,94.451c-0.445,0-0.805-0.359-0.805-0.805v-8.48c0-0.037,0.002-0.072,0.006-0.109
		c0-0.023,0.037-1.23-2.676-1.863c-0.432-0.102-0.701-0.533-0.6-0.969c0.1-0.432,0.531-0.701,0.967-0.6
		c3.842,0.896,3.938,3.094,3.912,3.564v8.457C99.549,94.091,99.189,94.451,98.744,94.451z"/>
</g>
</svg>
